<?xml version="1.0" encoding="utf-8"?>
<!-- Generator: Adobe Illustrator 26.0.0, SVG Export Plug-In . SVG Version: 6.00 Build 0)  -->
<svg version="1.1" id="Layer_1" xmlns="http://www.w3.org/2000/svg" xmlns:xlink="http://www.w3.org/1999/xlink" x="0px" y="0px"
	 viewBox="0 0 3000 3000" style="enable-background:new 0 0 3000 3000;" xml:space="preserve">
<style type="text/css">
	.st0{fill:#FFFFFF;}
</style>
<g>
	<path class="st0" d="M887.5,1972.1c-19,1-36.1-1.3-53-5.3c-95.4-22.2-165.4-94.8-183.6-190.9c-2.7-14.3-3.8-29.1-3.9-43.7
		c-0.4-73.7-0.2-147.3-0.2-221c0-245.9,0-491.9,0-737.8c0-3.9,0-7.9,0-12.9c6.7,0,12.6-0.5,18.3,0.1c88.6,9,154.3,52.7,196.2,131.2
		c17.7,33.1,25.6,69.2,25.9,106.8c0.3,29.3,0.1,58.7,0.1,88c0,3.3,0,6.5,0,11.3c7.8-3.9,14.2-7.2,20.7-10.3
		c61.2-30,125.9-46.8,193.9-50.4c84.7-4.5,165.7,10.7,242.6,46.8c50.9,23.8,96.5,55.4,136,95.3c69.3,69.9,113.8,153,128.8,250.8
		c3.7,23.9,5.1,48.4,5.8,72.6c1.8,57.3,23,106.3,61.5,147.9c44.3,47.9,99.6,75.7,164.1,82.9c82.2,9.1,154.6-14.5,213-74
		c51.1-52,73.4-115.5,64.8-188c-8.3-70.2-44.2-124.8-101.8-164.9c-99.9-69.6-239.9-56.7-325.7,29.7c-20.3,20.5-37.3,43.5-47.6,70.8
		c-0.7,1.8-1.8,3.4-3.2,6.1c-23.4-88.1-53.3-171.7-118.3-238.8c2.5-2.6,4.9-5.3,7.5-7.7c73.5-67.4,159.4-109.2,257.8-124.6
		c105.3-16.4,206.9-3.1,302.3,44.8c125.4,63,210.8,161.1,248,297.7c41.3,151.2-2.9,315.1-112,427
		c-70.7,72.5-155.2,120.5-254.3,139.6c-166.2,32-315-6.1-441.4-120.3c-77.7-70.2-124.8-158.5-141.7-262.2
		c-3.3-20.3-4.7-41.1-4.9-61.7c-0.6-67.3-23.1-125.3-71.4-172.4c-39.1-38.2-86-61.5-140.2-68.6c-84.9-11.2-159,12.3-219.9,73.1
		c-34.7,34.6-55.6,76.9-63.6,125.4c-0.9,5.2-0.8,10.6-0.8,15.9c0,159.3,0,318.7,0,478C887.5,1962.4,887.5,1966.7,887.5,1972.1z"/>
	<path class="st0" d="M1382.6,1694.7c50,110,130,190.3,238,242.6c0.5,1.1,1,1.7,1,2.3c-0.2,31,3.1,62.1-1.8,92.8
		c-14.8,93.5-67.1,157.4-154.7,192.7c-22.4,9-46.1,12.8-70.1,14.6c-3,0.2-6,0.1-9-0.1c-0.9,0-1.9-0.5-3.4-0.9
		C1382.6,2057.3,1382.6,1876,1382.6,1694.7z"/>
</g>
</svg>
