<?xml version="1.0" encoding="utf-8"?>
<!-- Generator: Adobe Illustrator 26.0.0, SVG Export Plug-In . SVG Version: 6.00 Build 0)  -->
<svg version="1.1" xmlns="http://www.w3.org/2000/svg" xmlns:xlink="http://www.w3.org/1999/xlink" x="0px" y="0px"
	 viewBox="0 0 500 500" style="enable-background:new 0 0 500 500;" xml:space="preserve">
<style type="text/css">
	.st0{fill:#FFFFFF;}
	.st1{fill:#EBEBEB;}
	.st2{fill:#E6E6E6;}
	.st3{fill:#F0F0F0;}
	.st4{fill:#E0E0E0;}
	.st5{fill:#F5F5F5;}
	.st6{fill:#7366FF;}
	.st7{opacity:0.2;fill:#FFFFFF;enable-background:new    ;}
	.st8{fill:#263238;}
	.st9{opacity:0.5;}
	.st10{opacity:0.6;enable-background:new    ;}
	.st11{opacity:0.5;enable-background:new    ;}
	.st12{opacity:0.7;fill:#FFFFFF;enable-background:new    ;}
	.st13{opacity:0.1;enable-background:new    ;}
	.st14{opacity:0.4;fill:#FFFFFF;enable-background:new    ;}
	.st15{opacity:0.2;enable-background:new    ;}
	.st16{opacity:0.3;enable-background:new    ;}
	.st17{fill:#E4897B;}
	.st18{fill:#DE5753;}
	.st19{opacity:0.8;fill:#FFFFFF;enable-background:new    ;}
	.st20{fill:#EBB376;}
	.st21{fill:#D58745;}
	.st22{fill:#9F5B53;}
	.st23{fill:#A24E3F;}
	.st24{fill:#2E353A;}
</style>
<g id="Layer_2">
	<rect class="st0" width="500" height="500"/>
</g>
<g id="Layer_1">
	<g id="freepik--background-complete--inject-13">
		<rect y="382.4" class="st1" width="500" height="0.2"/>
		<rect x="416.8" y="398.5" class="st1" width="33.1" height="0.2"/>
		<rect x="322.5" y="401.2" class="st1" width="8.7" height="0.2"/>
		<rect x="396.6" y="389.2" class="st1" width="19.2" height="0.2"/>
		<rect x="52.5" y="390.9" class="st1" width="43.2" height="0.2"/>
		<rect x="104.6" y="390.9" class="st1" width="6.3" height="0.2"/>
		<rect x="131.5" y="395.1" class="st1" width="93.7" height="0.2"/>
		<path class="st1" d="M237,337.8H43.9c-3.1,0-5.7-2.6-5.7-5.7V60.7c0-3.1,2.6-5.7,5.7-5.7H237c3.2,0,5.7,2.6,5.7,5.7c0,0,0,0,0,0
			v271.4C242.7,335.2,240.2,337.8,237,337.8z M43.9,55.2c-3,0-5.5,2.4-5.5,5.5v271.4c0,3,2.4,5.5,5.5,5.5H237c3,0,5.5-2.4,5.5-5.5
			V60.7c0-3-2.4-5.5-5.5-5.5H43.9z"/>
		<path class="st1" d="M453.3,337.8H260.2c-3.2,0-5.7-2.6-5.7-5.7V60.7c0-3.1,2.6-5.7,5.7-5.7h193.1c3.1,0,5.7,2.5,5.7,5.7v271.4
			C459,335.2,456.5,337.8,453.3,337.8z M260.2,55.2c-3,0-5.5,2.4-5.5,5.5v271.4c0,3,2.4,5.5,5.5,5.5h193.1c3,0,5.5-2.4,5.5-5.5V60.7
			c0-3-2.4-5.5-5.5-5.5H260.2z"/>
		<polygon class="st2" points="445.7,382.4 445.7,333 441.5,333 441.5,309.5 435.3,309.5 435.3,227.6 426.4,227.6 426.4,217.1 
			407.4,208.2 407.4,197.6 404.7,197.6 404.7,227.6 401,227.6 401,309.5 397.3,309.5 397.3,266.4 387.3,266.4 387.3,244.3 
			384.5,244.3 384.5,309.5 376.9,309.5 376.9,284.6 371.9,284.6 371.9,278.3 360.2,278.3 360.2,256.7 353.9,256.7 353.9,241.4 
			346.1,241.4 346.1,219.1 343.3,219.1 343.3,241.4 335.5,241.4 335.5,256.7 329.1,256.7 329.1,278.3 317.5,278.3 317.5,284.6 
			312.5,284.6 312.5,309.5 306.5,309.5 306.5,278.3 294.9,278.3 294.9,211.3 291.2,211.3 291.2,203.9 266.4,203.9 266.4,211.3 
			261.1,211.3 261.1,259.8 240,259.8 240,264.6 232.1,264.6 232.1,268.3 240,268.3 240,287.3 217.9,287.3 217.9,223.9 213.1,223.9 
			213.1,210.5 202.8,210.5 202.8,162.7 199.9,162.7 199.9,210.5 192.5,210.5 192.5,223.9 149.2,223.9 149.2,219.5 146.6,219.5 
			146.6,249.6 142.9,249.6 142.9,250.1 140.6,250.1 140.6,280.2 136.9,280.2 136.9,288.4 129.1,288.4 129.1,266.2 126.3,266.2 
			126.3,319 123.2,319 123.2,296.9 120.4,296.9 120.4,331.4 118.7,331.4 118.7,306.6 113.7,306.6 113.7,300.3 102.1,300.3 
			102.1,278.6 95.7,278.6 95.7,263.3 87.9,263.3 87.9,241 85.1,241 85.1,263.3 77.3,263.3 77.3,278.6 70.9,278.6 70.9,300.3 
			59.3,300.3 59.3,306.6 54.3,306.6 54.3,330.9 53.4,330.9 53.4,331.4 50.9,331.4 50.9,382.4 		"/>
		<rect x="173.4" y="226.9" class="st3" width="3" height="3"/>
		<rect x="173.4" y="231.9" class="st3" width="3" height="3"/>
		<rect x="173.4" y="252" class="st3" width="3" height="3"/>
		<rect x="173.4" y="257" class="st3" width="3" height="3"/>
		<rect x="173.4" y="262" class="st3" width="3" height="3"/>
		<rect x="173.4" y="277" class="st3" width="3" height="3"/>
		<rect x="173.4" y="282.1" class="st3" width="3" height="3"/>
		<rect x="178.1" y="247" class="st3" width="3" height="3"/>
		<rect x="178.1" y="252" class="st3" width="3" height="3"/>
		<rect x="178.1" y="257" class="st3" width="3" height="3"/>
		<rect x="178.1" y="262" class="st3" width="3" height="3"/>
		<rect x="178.1" y="267" class="st3" width="3" height="3"/>
		<rect x="178.1" y="277" class="st3" width="3" height="3"/>
		<rect x="178.1" y="282.1" class="st3" width="3" height="3"/>
		<rect x="182.9" y="226.9" class="st3" width="3" height="3"/>
		<rect x="182.9" y="231.9" class="st3" width="3" height="3"/>
		<rect x="182.9" y="236.9" class="st3" width="3" height="3"/>
		<rect x="182.9" y="241.9" class="st3" width="3" height="3"/>
		<rect x="182.9" y="247" class="st3" width="3" height="3"/>
		<rect x="182.9" y="252" class="st3" width="3" height="3"/>
		<rect x="182.9" y="257" class="st3" width="3" height="3"/>
		<rect x="182.9" y="262" class="st3" width="3" height="3"/>
		<rect x="182.9" y="267" class="st3" width="3" height="3"/>
		<rect x="182.9" y="272" class="st3" width="3" height="3"/>
		<rect x="182.9" y="282.1" class="st3" width="3" height="3"/>
		<rect x="187.6" y="226.9" class="st3" width="3" height="3"/>
		<rect x="187.6" y="231.9" class="st3" width="3" height="3"/>
		<rect x="187.6" y="236.9" class="st3" width="3" height="3"/>
		<rect x="187.6" y="241.9" class="st3" width="3" height="3"/>
		<rect x="187.6" y="247" class="st3" width="3" height="3"/>
		<rect x="187.6" y="252" class="st3" width="3" height="3"/>
		<rect x="187.6" y="257" class="st3" width="3" height="3"/>
		<rect x="187.6" y="302.1" class="st3" width="3" height="3"/>
		<rect x="192.4" y="226.9" class="st3" width="3" height="3"/>
		<rect x="192.4" y="231.9" class="st3" width="3" height="3"/>
		<rect x="192.4" y="236.9" class="st3" width="3" height="3"/>
		<rect x="192.4" y="241.9" class="st3" width="3" height="3"/>
		<rect x="192.4" y="247" class="st3" width="3" height="3"/>
		<rect x="192.4" y="252" class="st3" width="3" height="3"/>
		<rect x="192.4" y="257" class="st3" width="3" height="3"/>
		<rect x="192.4" y="262" class="st3" width="3" height="3"/>
		<rect x="192.4" y="292.1" class="st3" width="3" height="3"/>
		<rect x="192.4" y="297.1" class="st3" width="3" height="3"/>
		<rect x="192.4" y="302.1" class="st3" width="3" height="3"/>
		<rect x="192.4" y="307.1" class="st3" width="3" height="3"/>
		<rect x="192.4" y="327.2" class="st3" width="3" height="3"/>
		<rect x="197.1" y="226.9" class="st3" width="3" height="3"/>
		<rect x="197.1" y="231.9" class="st3" width="3" height="3"/>
		<rect x="197.1" y="236.9" class="st3" width="3" height="3"/>
		<rect x="197.1" y="241.9" class="st3" width="3" height="3"/>
		<rect x="197.1" y="247" class="st3" width="3" height="3"/>
		<rect x="197.1" y="252" class="st3" width="3" height="3"/>
		<rect x="197.1" y="257" class="st3" width="3" height="3"/>
		<rect x="197.1" y="262" class="st3" width="3" height="3"/>
		<rect x="197.1" y="267" class="st3" width="3" height="3"/>
		<rect x="197.1" y="272" class="st3" width="3" height="3"/>
		<rect x="197.1" y="287.1" class="st3" width="3" height="3"/>
		<rect x="197.1" y="292.1" class="st3" width="3" height="3"/>
		<rect x="197.1" y="297.1" class="st3" width="3" height="3"/>
		<rect x="197.1" y="302.1" class="st3" width="3" height="3"/>
		<rect x="197.1" y="307.1" class="st3" width="3" height="3"/>
		<rect x="197.1" y="327.2" class="st3" width="3" height="3"/>
		<rect x="201.9" y="226.9" class="st3" width="3" height="3"/>
		<rect x="201.9" y="231.9" class="st3" width="3" height="3"/>
		<rect x="201.9" y="236.9" class="st3" width="3" height="3"/>
		<rect x="201.9" y="241.9" class="st3" width="3" height="3"/>
		<rect x="201.9" y="247" class="st3" width="3" height="3"/>
		<rect x="201.9" y="252" class="st3" width="3" height="3"/>
		<rect x="201.9" y="257" class="st3" width="3" height="3"/>
		<rect x="201.9" y="262" class="st3" width="3" height="3"/>
		<rect x="201.9" y="267" class="st3" width="3" height="3"/>
		<rect x="201.9" y="272" class="st3" width="3" height="3"/>
		<rect x="201.9" y="277" class="st3" width="3" height="3"/>
		<rect x="201.9" y="282.1" class="st3" width="3" height="3"/>
		<rect x="201.9" y="287.1" class="st3" width="3" height="3"/>
		<rect x="201.9" y="292.1" class="st3" width="3" height="3"/>
		<rect x="201.9" y="297.1" class="st3" width="3" height="3"/>
		<rect x="201.9" y="302.1" class="st3" width="3" height="3"/>
		<rect x="201.9" y="307.1" class="st3" width="3" height="3"/>
		<rect x="201.9" y="312.2" class="st3" width="3" height="3"/>
		<rect x="206.6" y="226.9" class="st3" width="3" height="3"/>
		<rect x="206.6" y="231.9" class="st3" width="3" height="3"/>
		<rect x="206.6" y="236.9" class="st3" width="3" height="3"/>
		<rect x="206.6" y="241.9" class="st3" width="3" height="3"/>
		<rect x="206.6" y="247" class="st3" width="3" height="3"/>
		<rect x="206.6" y="252" class="st3" width="3" height="3"/>
		<rect x="206.6" y="257" class="st3" width="3" height="3"/>
		<rect x="206.6" y="262" class="st3" width="3" height="3"/>
		<rect x="206.6" y="267" class="st3" width="3" height="3"/>
		<rect x="206.6" y="272" class="st3" width="3" height="3"/>
		<rect x="206.6" y="287.1" class="st3" width="3" height="3"/>
		<rect x="206.6" y="292.1" class="st3" width="3" height="3"/>
		<rect x="206.6" y="297.1" class="st3" width="3" height="3"/>
		<rect x="206.6" y="302.1" class="st3" width="3" height="3"/>
		<rect x="211.4" y="226.9" class="st3" width="3" height="3"/>
		<rect x="211.4" y="231.9" class="st3" width="3" height="3"/>
		<rect x="211.4" y="236.9" class="st3" width="3" height="3"/>
		<rect x="211.4" y="241.9" class="st3" width="3" height="3"/>
		<rect x="211.4" y="247" class="st3" width="3" height="3"/>
		<rect x="211.4" y="252" class="st3" width="3" height="3"/>
		<rect x="211.4" y="257" class="st3" width="3" height="3"/>
		<rect x="211.4" y="262" class="st3" width="3" height="3"/>
		<rect x="211.4" y="267" class="st3" width="3" height="3"/>
		<rect x="211.4" y="272" class="st3" width="3" height="3"/>
		<rect x="211.4" y="287.1" class="st3" width="3" height="3"/>
		<rect x="211.4" y="292.1" class="st3" width="3" height="3"/>
		<rect x="211.4" y="297.1" class="st3" width="3" height="3"/>
		<rect x="264.9" y="213.9" class="st3" width="3" height="3"/>
		<rect x="264.9" y="218.9" class="st3" width="3" height="3"/>
		<rect x="264.9" y="223.9" class="st3" width="3" height="3"/>
		<rect x="264.9" y="228.9" class="st3" width="3" height="3"/>
		<rect x="264.9" y="233.9" class="st3" width="3" height="3"/>
		<rect x="264.9" y="239" class="st3" width="3" height="3"/>
		<rect x="264.9" y="244" class="st3" width="3" height="3"/>
		<rect x="264.9" y="249" class="st3" width="3" height="3"/>
		<rect x="264.9" y="264" class="st3" width="3" height="3"/>
		<rect x="264.9" y="269" class="st3" width="3" height="3"/>
		<rect x="269.6" y="213.9" class="st3" width="3" height="3"/>
		<rect x="269.6" y="218.9" class="st3" width="3" height="3"/>
		<rect x="269.6" y="223.9" class="st3" width="3" height="3"/>
		<rect x="269.6" y="228.9" class="st3" width="3" height="3"/>
		<rect x="269.6" y="233.9" class="st3" width="3" height="3"/>
		<rect x="269.6" y="239" class="st3" width="3" height="3"/>
		<rect x="269.6" y="244" class="st3" width="3" height="3"/>
		<rect x="269.6" y="249" class="st3" width="3" height="3"/>
		<rect x="269.6" y="269" class="st3" width="3" height="3"/>
		<rect x="274.4" y="213.9" class="st3" width="3" height="3"/>
		<rect x="274.4" y="218.9" class="st3" width="3" height="3"/>
		<rect x="274.4" y="223.9" class="st3" width="3" height="3"/>
		<rect x="274.4" y="228.9" class="st3" width="3" height="3"/>
		<rect x="274.4" y="233.9" class="st3" width="3" height="3"/>
		<rect x="274.4" y="239" class="st3" width="3" height="3"/>
		<rect x="274.4" y="244" class="st3" width="3" height="3"/>
		<rect x="274.4" y="249" class="st3" width="3" height="3"/>
		<rect x="279.1" y="213.9" class="st3" width="3" height="3"/>
		<rect x="279.1" y="218.9" class="st3" width="3" height="3"/>
		<rect x="279.1" y="223.9" class="st3" width="3" height="3"/>
		<rect x="279.1" y="228.9" class="st3" width="3" height="3"/>
		<rect x="279.1" y="233.9" class="st3" width="3" height="3"/>
		<rect x="279.1" y="239" class="st3" width="3" height="3"/>
		<rect x="279.1" y="249" class="st3" width="3" height="3"/>
		<rect x="279.1" y="254" class="st3" width="3" height="3"/>
		<rect x="279.1" y="269" class="st3" width="3" height="3"/>
		<rect x="279.1" y="274.1" class="st3" width="3" height="3"/>
		<rect x="279.1" y="279.1" class="st3" width="3" height="3"/>
		<rect x="279.1" y="284.1" class="st3" width="3" height="3"/>
		<rect x="279.1" y="289.1" class="st3" width="3" height="3"/>
		<rect x="279.1" y="294.1" class="st3" width="3" height="3"/>
		<rect x="279.1" y="299.1" class="st3" width="3" height="3"/>
		<rect x="283.9" y="213.9" class="st3" width="3" height="3"/>
		<rect x="283.9" y="218.9" class="st3" width="3" height="3"/>
		<rect x="283.9" y="223.9" class="st3" width="3" height="3"/>
		<rect x="283.9" y="228.9" class="st3" width="3" height="3"/>
		<rect x="283.9" y="233.9" class="st3" width="3" height="3"/>
		<rect x="283.9" y="239" class="st3" width="3" height="3"/>
		<rect x="283.9" y="254" class="st3" width="3" height="3"/>
		<rect x="283.9" y="259" class="st3" width="3" height="3"/>
		<rect x="283.9" y="264" class="st3" width="3" height="3"/>
		<rect x="283.9" y="269" class="st3" width="3" height="3"/>
		<rect x="283.9" y="274.1" class="st3" width="3" height="3"/>
		<rect x="283.9" y="279.1" class="st3" width="3" height="3"/>
		<rect x="283.9" y="284.1" class="st3" width="3" height="3"/>
		<rect x="283.9" y="289.1" class="st3" width="3" height="3"/>
		<rect x="283.9" y="294.1" class="st3" width="3" height="3"/>
		<rect x="283.9" y="299.1" class="st3" width="3" height="3"/>
		<rect x="283.9" y="304.1" class="st3" width="3" height="3"/>
		<rect x="283.9" y="314.2" class="st3" width="3" height="3"/>
		<rect x="288.6" y="213.9" class="st3" width="3" height="3"/>
		<rect x="288.6" y="218.9" class="st3" width="3" height="3"/>
		<rect x="288.6" y="223.9" class="st3" width="3" height="3"/>
		<rect x="288.6" y="228.9" class="st3" width="3" height="3"/>
		<rect x="288.6" y="233.9" class="st3" width="3" height="3"/>
		<rect x="288.6" y="239" class="st3" width="3" height="3"/>
		<rect x="288.6" y="254" class="st3" width="3" height="3"/>
		<rect x="288.6" y="259" class="st3" width="3" height="3"/>
		<rect x="288.6" y="264" class="st3" width="3" height="3"/>
		<rect x="288.6" y="269" class="st3" width="3" height="3"/>
		<rect x="288.6" y="284.1" class="st3" width="3" height="3"/>
		<rect x="288.6" y="289.1" class="st3" width="3" height="3"/>
		<rect x="288.6" y="294.1" class="st3" width="3" height="3"/>
		<rect x="288.6" y="299.1" class="st3" width="3" height="3"/>
		<rect x="288.6" y="304.1" class="st3" width="3" height="3"/>
		<rect x="288.6" y="314.2" class="st3" width="3" height="3"/>
		<rect x="288.6" y="319.2" class="st3" width="3" height="3"/>
		<rect x="331.7" y="260.5" class="st3" width="3" height="3"/>
		<rect x="331.7" y="265.5" class="st3" width="3" height="3"/>
		<rect x="331.7" y="270.5" class="st3" width="3" height="3"/>
		<rect x="331.7" y="275.6" class="st3" width="3" height="3"/>
		<rect x="331.7" y="280.6" class="st3" width="3" height="3"/>
		<rect x="331.7" y="285.6" class="st3" width="3" height="3"/>
		<rect x="331.7" y="290.6" class="st3" width="3" height="3"/>
		<rect x="331.7" y="305.6" class="st3" width="3" height="3"/>
		<rect x="331.7" y="310.7" class="st3" width="3" height="3"/>
		<rect x="331.7" y="315.7" class="st3" width="3" height="3"/>
		<rect x="336.5" y="260.5" class="st3" width="3" height="3"/>
		<rect x="336.5" y="265.5" class="st3" width="3" height="3"/>
		<rect x="336.5" y="270.5" class="st3" width="3" height="3"/>
		<rect x="336.5" y="275.6" class="st3" width="3" height="3"/>
		<rect x="336.5" y="280.6" class="st3" width="3" height="3"/>
		<rect x="336.5" y="285.6" class="st3" width="3" height="3"/>
		<rect x="336.5" y="290.6" class="st3" width="3" height="3"/>
		<rect x="341.2" y="260.5" class="st3" width="3" height="3"/>
		<rect x="341.2" y="265.5" class="st3" width="3" height="3"/>
		<rect x="341.2" y="270.5" class="st3" width="3" height="3"/>
		<rect x="341.2" y="275.6" class="st3" width="3" height="3"/>
		<rect x="341.2" y="280.6" class="st3" width="3" height="3"/>
		<rect x="341.2" y="285.6" class="st3" width="3" height="3"/>
		<rect x="341.2" y="290.6" class="st3" width="3" height="3"/>
		<rect x="346" y="260.5" class="st3" width="3" height="3"/>
		<rect x="346" y="265.5" class="st3" width="3" height="3"/>
		<rect x="346" y="270.5" class="st3" width="3" height="3"/>
		<rect x="346" y="275.6" class="st3" width="3" height="3"/>
		<rect x="346" y="280.6" class="st3" width="3" height="3"/>
		<rect x="346" y="285.6" class="st3" width="3" height="3"/>
		<rect x="346" y="290.6" class="st3" width="3" height="3"/>
		<rect x="346" y="295.6" class="st3" width="3" height="3"/>
		<rect x="346" y="300.6" class="st3" width="3" height="3"/>
		<rect x="346" y="305.6" class="st3" width="3" height="3"/>
		<rect x="346" y="310.7" class="st3" width="3" height="3"/>
		<rect x="350.7" y="260.5" class="st3" width="3" height="3"/>
		<rect x="350.7" y="265.5" class="st3" width="3" height="3"/>
		<rect x="350.7" y="270.5" class="st3" width="3" height="3"/>
		<rect x="350.7" y="275.6" class="st3" width="3" height="3"/>
		<rect x="350.7" y="280.6" class="st3" width="3" height="3"/>
		<rect x="350.7" y="285.6" class="st3" width="3" height="3"/>
		<rect x="350.7" y="290.6" class="st3" width="3" height="3"/>
		<rect x="350.7" y="295.6" class="st3" width="3" height="3"/>
		<rect x="350.7" y="300.6" class="st3" width="3" height="3"/>
		<rect x="350.7" y="305.6" class="st3" width="3" height="3"/>
		<rect x="350.7" y="310.7" class="st3" width="3" height="3"/>
		<rect x="350.7" y="315.7" class="st3" width="3" height="3"/>
		<rect x="350.7" y="330.7" class="st3" width="3" height="3"/>
		<rect x="350.7" y="335.7" class="st3" width="3" height="3"/>
		<rect x="355.5" y="260.5" class="st3" width="3" height="3"/>
		<rect x="355.5" y="265.5" class="st3" width="3" height="3"/>
		<rect x="355.5" y="270.5" class="st3" width="3" height="3"/>
		<rect x="355.5" y="285.6" class="st3" width="3" height="3"/>
		<rect x="355.5" y="290.6" class="st3" width="3" height="3"/>
		<rect x="355.5" y="295.6" class="st3" width="3" height="3"/>
		<rect x="355.5" y="300.6" class="st3" width="3" height="3"/>
		<rect x="355.5" y="305.6" class="st3" width="3" height="3"/>
		<rect x="355.5" y="310.7" class="st3" width="3" height="3"/>
		<rect x="355.5" y="315.7" class="st3" width="3" height="3"/>
		<rect x="355.5" y="330.7" class="st3" width="3" height="3"/>
		<rect x="355.5" y="335.7" class="st3" width="3" height="3"/>
		<rect x="355.5" y="340.8" class="st3" width="3" height="3"/>
		<rect x="405.3" y="230.4" class="st3" width="3" height="3"/>
		<rect x="405.3" y="235.4" class="st3" width="3" height="3"/>
		<rect x="405.3" y="240.5" class="st3" width="3" height="3"/>
		<rect x="405.3" y="245.5" class="st3" width="3" height="3"/>
		<rect x="405.3" y="250.5" class="st3" width="3" height="3"/>
		<rect x="405.3" y="255.5" class="st3" width="3" height="3"/>
		<rect x="405.3" y="260.5" class="st3" width="3" height="3"/>
		<rect x="405.3" y="265.5" class="st3" width="3" height="3"/>
		<rect x="405.3" y="270.5" class="st3" width="3" height="3"/>
		<rect x="405.3" y="275.6" class="st3" width="3" height="3"/>
		<rect x="405.3" y="280.6" class="st3" width="3" height="3"/>
		<rect x="405.3" y="285.6" class="st3" width="3" height="3"/>
		<rect x="405.3" y="290.6" class="st3" width="3" height="3"/>
		<rect x="405.3" y="295.6" class="st3" width="3" height="3"/>
		<rect x="405.3" y="300.6" class="st3" width="3" height="3"/>
		<rect x="405.3" y="305.6" class="st3" width="3" height="3"/>
		<rect x="405.3" y="310.7" class="st3" width="3" height="3"/>
		<rect x="405.3" y="315.7" class="st3" width="3" height="3"/>
		<rect x="405.3" y="320.7" class="st3" width="3" height="3"/>
		<rect x="405.3" y="325.7" class="st3" width="3" height="3"/>
		<rect x="405.3" y="330.7" class="st3" width="3" height="3"/>
		<rect x="405.3" y="335.7" class="st3" width="3" height="3"/>
		<rect x="405.3" y="340.8" class="st3" width="3" height="3"/>
		<rect x="410" y="230.4" class="st3" width="3" height="3"/>
		<rect x="410" y="235.4" class="st3" width="3" height="3"/>
		<rect x="410" y="240.5" class="st3" width="3" height="3"/>
		<rect x="410" y="245.5" class="st3" width="3" height="3"/>
		<rect x="410" y="250.5" class="st3" width="3" height="3"/>
		<rect x="410" y="255.5" class="st3" width="3" height="3"/>
		<rect x="410" y="260.5" class="st3" width="3" height="3"/>
		<rect x="410" y="265.5" class="st3" width="3" height="3"/>
		<rect x="410" y="270.5" class="st3" width="3" height="3"/>
		<rect x="410" y="275.6" class="st3" width="3" height="3"/>
		<rect x="410" y="280.6" class="st3" width="3" height="3"/>
		<rect x="410" y="285.6" class="st3" width="3" height="3"/>
		<rect x="410" y="290.6" class="st3" width="3" height="3"/>
		<rect x="410" y="295.6" class="st3" width="3" height="3"/>
		<rect x="410" y="300.6" class="st3" width="3" height="3"/>
		<rect x="410" y="305.6" class="st3" width="3" height="3"/>
		<rect x="410" y="310.7" class="st3" width="3" height="3"/>
		<rect x="410" y="315.7" class="st3" width="3" height="3"/>
		<rect x="410" y="320.7" class="st3" width="3" height="3"/>
		<rect x="414.8" y="230.4" class="st3" width="3" height="3"/>
		<rect x="414.8" y="235.4" class="st3" width="3" height="3"/>
		<rect x="414.8" y="240.5" class="st3" width="3" height="3"/>
		<rect x="414.8" y="245.5" class="st3" width="3" height="3"/>
		<rect x="414.8" y="250.5" class="st3" width="3" height="3"/>
		<rect x="414.8" y="255.5" class="st3" width="3" height="3"/>
		<rect x="414.8" y="260.5" class="st3" width="3" height="3"/>
		<rect x="414.8" y="265.5" class="st3" width="3" height="3"/>
		<rect x="414.8" y="270.5" class="st3" width="3" height="3"/>
		<rect x="414.8" y="275.6" class="st3" width="3" height="3"/>
		<rect x="414.8" y="280.6" class="st3" width="3" height="3"/>
		<rect x="414.8" y="285.6" class="st3" width="3" height="3"/>
		<rect x="414.8" y="290.6" class="st3" width="3" height="3"/>
		<rect x="414.8" y="295.6" class="st3" width="3" height="3"/>
		<rect x="414.8" y="300.6" class="st3" width="3" height="3"/>
		<rect x="414.8" y="305.6" class="st3" width="3" height="3"/>
		<rect x="414.8" y="310.7" class="st3" width="3" height="3"/>
		<rect x="414.8" y="315.7" class="st3" width="3" height="3"/>
		<rect x="414.8" y="320.7" class="st3" width="3" height="3"/>
		<rect x="419.5" y="230.4" class="st3" width="3" height="3"/>
		<rect x="419.5" y="235.4" class="st3" width="3" height="3"/>
		<rect x="419.5" y="240.5" class="st3" width="3" height="3"/>
		<rect x="419.5" y="245.5" class="st3" width="3" height="3"/>
		<rect x="419.5" y="250.5" class="st3" width="3" height="3"/>
		<rect x="419.5" y="255.5" class="st3" width="3" height="3"/>
		<rect x="419.5" y="260.5" class="st3" width="3" height="3"/>
		<rect x="419.5" y="265.5" class="st3" width="3" height="3"/>
		<rect x="419.5" y="270.5" class="st3" width="3" height="3"/>
		<rect x="419.5" y="275.6" class="st3" width="3" height="3"/>
		<rect x="419.5" y="280.6" class="st3" width="3" height="3"/>
		<rect x="419.5" y="285.6" class="st3" width="3" height="3"/>
		<rect x="419.5" y="290.6" class="st3" width="3" height="3"/>
		<rect x="419.5" y="295.6" class="st3" width="3" height="3"/>
		<rect x="419.5" y="300.6" class="st3" width="3" height="3"/>
		<rect x="424.3" y="230.4" class="st3" width="3" height="3"/>
		<rect x="424.3" y="235.4" class="st3" width="3" height="3"/>
		<rect x="424.3" y="240.5" class="st3" width="3" height="3"/>
		<rect x="424.3" y="245.5" class="st3" width="3" height="3"/>
		<rect x="424.3" y="250.5" class="st3" width="3" height="3"/>
		<rect x="424.3" y="255.5" class="st3" width="3" height="3"/>
		<rect x="424.3" y="260.5" class="st3" width="3" height="3"/>
		<rect x="424.3" y="265.5" class="st3" width="3" height="3"/>
		<rect x="424.3" y="270.5" class="st3" width="3" height="3"/>
		<rect x="424.3" y="275.6" class="st3" width="3" height="3"/>
		<rect x="424.3" y="280.6" class="st3" width="3" height="3"/>
		<rect x="424.3" y="285.6" class="st3" width="3" height="3"/>
		<rect x="424.3" y="290.6" class="st3" width="3" height="3"/>
		<rect x="429" y="230.4" class="st3" width="3" height="3"/>
		<rect x="429" y="235.4" class="st3" width="3" height="3"/>
		<rect x="429" y="240.5" class="st3" width="3" height="3"/>
		<rect x="429" y="245.5" class="st3" width="3" height="3"/>
		<rect x="429" y="250.5" class="st3" width="3" height="3"/>
		<rect x="429" y="255.5" class="st3" width="3" height="3"/>
		<rect x="429" y="260.5" class="st3" width="3" height="3"/>
		<rect x="429" y="265.5" class="st3" width="3" height="3"/>
		<rect x="429" y="270.5" class="st3" width="3" height="3"/>
		<rect x="429" y="275.6" class="st3" width="3" height="3"/>
		<rect x="429" y="280.6" class="st3" width="3" height="3"/>
		<rect x="429" y="285.6" class="st3" width="3" height="3"/>
		<rect x="79.9" y="267" class="st3" width="3" height="3"/>
		<rect x="79.9" y="272" class="st3" width="3" height="3"/>
		<rect x="79.9" y="277" class="st3" width="3" height="3"/>
		<rect x="79.9" y="282.1" class="st3" width="3" height="3"/>
		<rect x="79.9" y="287.1" class="st3" width="3" height="3"/>
		<rect x="79.9" y="292.1" class="st3" width="3" height="3"/>
		<rect x="79.9" y="297.1" class="st3" width="3" height="3"/>
		<rect x="79.9" y="302.1" class="st3" width="3" height="3"/>
		<rect x="79.9" y="307.1" class="st3" width="3" height="3"/>
		<rect x="79.9" y="312.2" class="st3" width="3" height="3"/>
		<rect x="79.9" y="317.2" class="st3" width="3" height="3"/>
		<rect x="79.9" y="322.2" class="st3" width="3" height="3"/>
		<rect x="79.9" y="327.2" class="st3" width="3" height="3"/>
		<rect x="79.9" y="332.2" class="st3" width="3" height="3"/>
		<rect x="79.9" y="337.2" class="st3" width="3" height="3"/>
		<rect x="79.9" y="342.2" class="st3" width="3" height="3"/>
		<rect x="79.9" y="347.3" class="st3" width="3" height="3"/>
		<rect x="79.9" y="352.3" class="st3" width="3" height="3"/>
		<rect x="79.9" y="357.3" class="st3" width="3" height="3"/>
		<rect x="79.9" y="362.3" class="st3" width="3" height="3"/>
		<rect x="84.7" y="267" class="st3" width="3" height="3"/>
		<rect x="84.7" y="272" class="st3" width="3" height="3"/>
		<rect x="84.7" y="277" class="st3" width="3" height="3"/>
		<rect x="84.7" y="282.1" class="st3" width="3" height="3"/>
		<rect x="84.7" y="287.1" class="st3" width="3" height="3"/>
		<rect x="84.7" y="292.1" class="st3" width="3" height="3"/>
		<rect x="84.7" y="297.1" class="st3" width="3" height="3"/>
		<rect x="84.7" y="302.1" class="st3" width="3" height="3"/>
		<rect x="84.7" y="307.1" class="st3" width="3" height="3"/>
		<rect x="84.7" y="312.2" class="st3" width="3" height="3"/>
		<rect x="84.7" y="317.2" class="st3" width="3" height="3"/>
		<rect x="84.7" y="322.2" class="st3" width="3" height="3"/>
		<rect x="84.7" y="327.2" class="st3" width="3" height="3"/>
		<rect x="84.7" y="332.2" class="st3" width="3" height="3"/>
		<rect x="84.7" y="337.2" class="st3" width="3" height="3"/>
		<rect x="84.7" y="342.2" class="st3" width="3" height="3"/>
		<rect x="84.7" y="347.3" class="st3" width="3" height="3"/>
		<rect x="84.7" y="352.3" class="st3" width="3" height="3"/>
		<rect x="89.4" y="267" class="st3" width="3" height="3"/>
		<rect x="89.4" y="272" class="st3" width="3" height="3"/>
		<rect x="89.4" y="277" class="st3" width="3" height="3"/>
		<rect x="89.4" y="282.1" class="st3" width="3" height="3"/>
		<rect x="89.4" y="287.1" class="st3" width="3" height="3"/>
		<rect x="89.4" y="292.1" class="st3" width="3" height="3"/>
		<rect x="89.4" y="297.1" class="st3" width="3" height="3"/>
		<rect x="89.4" y="302.1" class="st3" width="3" height="3"/>
		<rect x="89.4" y="307.1" class="st3" width="3" height="3"/>
		<rect x="89.4" y="312.2" class="st3" width="3" height="3"/>
		<rect x="89.4" y="317.2" class="st3" width="3" height="3"/>
		<rect x="89.4" y="322.2" class="st3" width="3" height="3"/>
		<rect x="89.4" y="327.2" class="st3" width="3" height="3"/>
		<rect x="89.4" y="332.2" class="st3" width="3" height="3"/>
		<rect x="89.4" y="337.2" class="st3" width="3" height="3"/>
		<rect x="89.4" y="342.2" class="st3" width="3" height="3"/>
		<rect x="89.4" y="347.3" class="st3" width="3" height="3"/>
		<rect x="89.4" y="352.3" class="st3" width="3" height="3"/>
		<rect x="62.2" y="303.6" class="st3" width="3" height="3"/>
		<rect x="62.2" y="308.6" class="st3" width="3" height="3"/>
		<rect x="62.2" y="313.6" class="st3" width="3" height="3"/>
		<rect x="62.2" y="318.7" class="st3" width="3" height="3"/>
		<rect x="62.2" y="323.7" class="st3" width="3" height="3"/>
		<rect x="62.2" y="328.7" class="st3" width="3" height="3"/>
		<rect x="62.2" y="333.7" class="st3" width="3" height="3"/>
		<rect x="62.2" y="338.7" class="st3" width="3" height="3"/>
		<rect x="62.2" y="343.7" class="st3" width="3" height="3"/>
		<rect x="62.2" y="348.8" class="st3" width="3" height="3"/>
		<rect x="62.2" y="353.8" class="st3" width="3" height="3"/>
		<rect x="62.2" y="358.8" class="st3" width="3" height="3"/>
		<rect x="62.2" y="363.8" class="st3" width="3" height="3"/>
		<rect x="66.9" y="303.6" class="st3" width="3" height="3"/>
		<rect x="66.9" y="308.6" class="st3" width="3" height="3"/>
		<rect x="66.9" y="313.6" class="st3" width="3" height="3"/>
		<rect x="66.9" y="318.7" class="st3" width="3" height="3"/>
		<rect x="66.9" y="323.7" class="st3" width="3" height="3"/>
		<rect x="66.9" y="328.7" class="st3" width="3" height="3"/>
		<rect x="66.9" y="333.7" class="st3" width="3" height="3"/>
		<rect x="66.9" y="338.7" class="st3" width="3" height="3"/>
		<rect x="66.9" y="343.7" class="st3" width="3" height="3"/>
		<rect x="66.9" y="348.8" class="st3" width="3" height="3"/>
		<rect x="66.9" y="353.8" class="st3" width="3" height="3"/>
		<rect x="66.9" y="358.8" class="st3" width="3" height="3"/>
		<rect x="66.9" y="363.8" class="st3" width="3" height="3"/>
		<rect x="71.7" y="303.6" class="st3" width="3" height="3"/>
		<rect x="71.7" y="308.6" class="st3" width="3" height="3"/>
		<rect x="71.7" y="313.6" class="st3" width="3" height="3"/>
		<rect x="71.7" y="318.7" class="st3" width="3" height="3"/>
		<rect x="71.7" y="323.7" class="st3" width="3" height="3"/>
		<rect x="71.7" y="328.7" class="st3" width="3" height="3"/>
		<rect x="71.7" y="333.7" class="st3" width="3" height="3"/>
		<rect x="71.7" y="338.7" class="st3" width="3" height="3"/>
		<rect x="71.7" y="343.7" class="st3" width="3" height="3"/>
		<rect x="71.7" y="348.8" class="st3" width="3" height="3"/>
		<rect x="71.7" y="353.8" class="st3" width="3" height="3"/>
		<rect x="71.7" y="358.8" class="st3" width="3" height="3"/>
		<rect x="71.7" y="363.8" class="st3" width="3" height="3"/>
		<rect x="71.7" y="368.8" class="st3" width="3" height="3"/>
		<rect x="98.1" y="305.1" class="st3" width="3" height="3"/>
		<rect x="98.1" y="310.1" class="st3" width="3" height="3"/>
		<rect x="98.1" y="315.1" class="st3" width="3" height="3"/>
		<rect x="98.1" y="320.2" class="st3" width="3" height="3"/>
		<rect x="98.1" y="325.2" class="st3" width="3" height="3"/>
		<rect x="98.1" y="330.2" class="st3" width="3" height="3"/>
		<rect x="98.1" y="335.2" class="st3" width="3" height="3"/>
		<rect x="98.1" y="340.2" class="st3" width="3" height="3"/>
		<rect x="98.1" y="345.2" class="st3" width="3" height="3"/>
		<rect x="98.1" y="350.2" class="st3" width="3" height="3"/>
		<rect x="98.1" y="365.3" class="st3" width="3" height="3"/>
		<rect x="102.8" y="305.1" class="st3" width="3" height="3"/>
		<rect x="102.8" y="310.1" class="st3" width="3" height="3"/>
		<rect x="102.8" y="315.1" class="st3" width="3" height="3"/>
		<rect x="102.8" y="320.2" class="st3" width="3" height="3"/>
		<rect x="102.8" y="325.2" class="st3" width="3" height="3"/>
		<rect x="102.8" y="330.2" class="st3" width="3" height="3"/>
		<rect x="102.8" y="335.2" class="st3" width="3" height="3"/>
		<rect x="102.8" y="340.2" class="st3" width="3" height="3"/>
		<rect x="102.8" y="345.2" class="st3" width="3" height="3"/>
		<rect x="102.8" y="360.3" class="st3" width="3" height="3"/>
		<rect x="102.8" y="365.3" class="st3" width="3" height="3"/>
		<rect x="107.6" y="305.1" class="st3" width="3" height="3"/>
		<rect x="107.6" y="310.1" class="st3" width="3" height="3"/>
		<rect x="107.6" y="315.1" class="st3" width="3" height="3"/>
		<rect x="107.6" y="320.2" class="st3" width="3" height="3"/>
		<rect x="107.6" y="325.2" class="st3" width="3" height="3"/>
		<rect x="107.6" y="330.2" class="st3" width="3" height="3"/>
		<rect x="107.6" y="335.2" class="st3" width="3" height="3"/>
		<rect x="107.6" y="340.2" class="st3" width="3" height="3"/>
		<rect x="107.6" y="355.3" class="st3" width="3" height="3"/>
		<rect x="107.6" y="360.3" class="st3" width="3" height="3"/>
		<rect x="107.6" y="365.3" class="st3" width="3" height="3"/>
		<rect x="151.7" y="228.9" class="st3" width="3" height="3"/>
		<rect x="151.7" y="233.9" class="st3" width="3" height="3"/>
		<rect x="151.7" y="239" class="st3" width="3" height="3"/>
		<rect x="151.7" y="244" class="st3" width="3" height="3"/>
		<rect x="151.7" y="249" class="st3" width="3" height="3"/>
		<rect x="151.7" y="254" class="st3" width="3" height="3"/>
		<rect x="151.7" y="259" class="st3" width="3" height="3"/>
		<rect x="151.7" y="264" class="st3" width="3" height="3"/>
		<rect x="151.7" y="269" class="st3" width="3" height="3"/>
		<rect x="151.7" y="274.1" class="st3" width="3" height="3"/>
		<rect x="151.7" y="279.1" class="st3" width="3" height="3"/>
		<rect x="151.7" y="284.1" class="st3" width="3" height="3"/>
		<rect x="151.7" y="289.1" class="st3" width="3" height="3"/>
		<rect x="151.7" y="294.1" class="st3" width="3" height="3"/>
		<rect x="151.7" y="299.1" class="st3" width="3" height="3"/>
		<rect x="151.7" y="304.1" class="st3" width="3" height="3"/>
		<rect x="151.7" y="309.2" class="st3" width="3" height="3"/>
		<rect x="151.7" y="319.2" class="st3" width="3" height="3"/>
		<rect x="151.7" y="324.2" class="st3" width="3" height="3"/>
		<rect x="151.7" y="329.2" class="st3" width="3" height="3"/>
		<rect x="151.7" y="334.2" class="st3" width="3" height="3"/>
		<rect x="151.7" y="339.2" class="st3" width="3" height="3"/>
		<rect x="156.5" y="228.9" class="st3" width="3" height="3"/>
		<rect x="156.5" y="233.9" class="st3" width="3" height="3"/>
		<rect x="156.5" y="239" class="st3" width="3" height="3"/>
		<rect x="156.5" y="244" class="st3" width="3" height="3"/>
		<rect x="156.5" y="249" class="st3" width="3" height="3"/>
		<rect x="156.5" y="254" class="st3" width="3" height="3"/>
		<rect x="156.5" y="259" class="st3" width="3" height="3"/>
		<rect x="156.5" y="264" class="st3" width="3" height="3"/>
		<rect x="156.5" y="269" class="st3" width="3" height="3"/>
		<rect x="156.5" y="274.1" class="st3" width="3" height="3"/>
		<rect x="156.5" y="279.1" class="st3" width="3" height="3"/>
		<rect x="156.5" y="284.1" class="st3" width="3" height="3"/>
		<rect x="156.5" y="289.1" class="st3" width="3" height="3"/>
		<rect x="156.5" y="294.1" class="st3" width="3" height="3"/>
		<rect x="156.5" y="299.1" class="st3" width="3" height="3"/>
		<rect x="156.5" y="304.1" class="st3" width="3" height="3"/>
		<rect x="156.5" y="334.2" class="st3" width="3" height="3"/>
		<rect x="156.5" y="339.2" class="st3" width="3" height="3"/>
		<rect x="161.2" y="228.9" class="st3" width="3" height="3"/>
		<rect x="161.2" y="233.9" class="st3" width="3" height="3"/>
		<rect x="161.2" y="239" class="st3" width="3" height="3"/>
		<rect x="161.2" y="244" class="st3" width="3" height="3"/>
		<rect x="161.2" y="249" class="st3" width="3" height="3"/>
		<rect x="161.2" y="254" class="st3" width="3" height="3"/>
		<rect x="161.2" y="259" class="st3" width="3" height="3"/>
		<rect x="161.2" y="264" class="st3" width="3" height="3"/>
		<rect x="161.2" y="269" class="st3" width="3" height="3"/>
		<rect x="161.2" y="274.1" class="st3" width="3" height="3"/>
		<rect x="161.2" y="279.1" class="st3" width="3" height="3"/>
		<rect x="161.2" y="284.1" class="st3" width="3" height="3"/>
		<rect x="161.2" y="289.1" class="st3" width="3" height="3"/>
		<rect x="161.2" y="294.1" class="st3" width="3" height="3"/>
		<rect x="161.2" y="299.1" class="st3" width="3" height="3"/>
		<rect x="161.2" y="304.1" class="st3" width="3" height="3"/>
		<rect x="161.2" y="314.2" class="st3" width="3" height="3"/>
		<rect x="161.2" y="319.2" class="st3" width="3" height="3"/>
		<rect x="161.2" y="324.2" class="st3" width="3" height="3"/>
		<rect x="161.2" y="329.2" class="st3" width="3" height="3"/>
		<rect x="161.2" y="339.2" class="st3" width="3" height="3"/>
		<rect x="134.5" y="292.1" class="st3" width="3" height="3"/>
		<rect x="134.5" y="297.1" class="st3" width="3" height="3"/>
		<rect x="134.5" y="302.1" class="st3" width="3" height="3"/>
		<rect x="134.5" y="307.1" class="st3" width="3" height="3"/>
		<rect x="134.5" y="312.2" class="st3" width="3" height="3"/>
		<rect x="134.5" y="317.2" class="st3" width="3" height="3"/>
		<rect x="134.5" y="322.2" class="st3" width="3" height="3"/>
		<rect x="134.5" y="332.2" class="st3" width="3" height="3"/>
		<rect x="134.5" y="337.2" class="st3" width="3" height="3"/>
		<rect x="134.5" y="342.2" class="st3" width="3" height="3"/>
		<rect x="134.5" y="347.3" class="st3" width="3" height="3"/>
		<rect x="134.5" y="352.3" class="st3" width="3" height="3"/>
		<rect x="134.5" y="357.3" class="st3" width="3" height="3"/>
		<rect x="134.5" y="362.3" class="st3" width="3" height="3"/>
		<rect x="134.5" y="367.3" class="st3" width="3" height="3"/>
		<rect x="139.2" y="292.1" class="st3" width="3" height="3"/>
		<rect x="139.2" y="297.1" class="st3" width="3" height="3"/>
		<rect x="139.2" y="302.1" class="st3" width="3" height="3"/>
		<rect x="139.2" y="307.1" class="st3" width="3" height="3"/>
		<rect x="139.2" y="312.2" class="st3" width="3" height="3"/>
		<rect x="139.2" y="317.2" class="st3" width="3" height="3"/>
		<rect x="139.2" y="332.2" class="st3" width="3" height="3"/>
		<rect x="139.2" y="337.2" class="st3" width="3" height="3"/>
		<rect x="139.2" y="342.2" class="st3" width="3" height="3"/>
		<rect x="139.2" y="347.3" class="st3" width="3" height="3"/>
		<rect x="139.2" y="352.3" class="st3" width="3" height="3"/>
		<rect x="139.2" y="357.3" class="st3" width="3" height="3"/>
		<rect x="139.2" y="362.3" class="st3" width="3" height="3"/>
		<rect x="139.2" y="367.3" class="st3" width="3" height="3"/>
		<rect x="144" y="292.1" class="st3" width="3" height="3"/>
		<rect x="144" y="297.1" class="st3" width="3" height="3"/>
		<rect x="144" y="302.1" class="st3" width="3" height="3"/>
		<rect x="144" y="307.1" class="st3" width="3" height="3"/>
		<rect x="144" y="312.2" class="st3" width="3" height="3"/>
		<rect x="144" y="317.2" class="st3" width="3" height="3"/>
		<rect x="144" y="327.2" class="st3" width="3" height="3"/>
		<rect x="144" y="332.2" class="st3" width="3" height="3"/>
		<rect x="144" y="337.2" class="st3" width="3" height="3"/>
		<rect x="144" y="342.2" class="st3" width="3" height="3"/>
		<rect x="144" y="347.3" class="st3" width="3" height="3"/>
		<rect x="144" y="352.3" class="st3" width="3" height="3"/>
		<rect x="144" y="357.3" class="st3" width="3" height="3"/>
		<rect x="144" y="362.3" class="st3" width="3" height="3"/>
		<rect x="144" y="367.3" class="st3" width="3" height="3"/>
		<rect x="244.1" y="264" class="st3" width="3" height="3"/>
		<rect x="244.1" y="269" class="st3" width="3" height="3"/>
		<rect x="244.1" y="274.1" class="st3" width="3" height="3"/>
		<rect x="244.1" y="279.1" class="st3" width="3" height="3"/>
		<rect x="244.1" y="284.1" class="st3" width="3" height="3"/>
		<rect x="244.1" y="289.1" class="st3" width="3" height="3"/>
		<rect x="244.1" y="294.1" class="st3" width="3" height="3"/>
		<rect x="244.1" y="299.1" class="st3" width="3" height="3"/>
		<rect x="244.1" y="304.1" class="st3" width="3" height="3"/>
		<rect x="244.1" y="309.2" class="st3" width="3" height="3"/>
		<rect x="244.1" y="314.2" class="st3" width="3" height="3"/>
		<rect x="244.1" y="319.2" class="st3" width="3" height="3"/>
		<rect x="244.1" y="324.2" class="st3" width="3" height="3"/>
		<rect x="244.1" y="334.2" class="st3" width="3" height="3"/>
		<rect x="244.1" y="339.2" class="st3" width="3" height="3"/>
		<rect x="244.1" y="344.3" class="st3" width="3" height="3"/>
		<rect x="244.1" y="349.3" class="st3" width="3" height="3"/>
		<rect x="244.1" y="359.3" class="st3" width="3" height="3"/>
		<rect x="244.1" y="364.3" class="st3" width="3" height="3"/>
		<rect x="244.1" y="369.3" class="st3" width="3" height="3"/>
		<rect x="248.8" y="264" class="st3" width="3" height="3"/>
		<rect x="248.8" y="269" class="st3" width="3" height="3"/>
		<rect x="248.8" y="274.1" class="st3" width="3" height="3"/>
		<rect x="248.8" y="279.1" class="st3" width="3" height="3"/>
		<rect x="248.8" y="284.1" class="st3" width="3" height="3"/>
		<rect x="248.8" y="289.1" class="st3" width="3" height="3"/>
		<rect x="248.8" y="294.1" class="st3" width="3" height="3"/>
		<rect x="248.8" y="299.1" class="st3" width="3" height="3"/>
		<rect x="248.8" y="304.1" class="st3" width="3" height="3"/>
		<rect x="248.8" y="309.2" class="st3" width="3" height="3"/>
		<rect x="248.8" y="314.2" class="st3" width="3" height="3"/>
		<rect x="248.8" y="319.2" class="st3" width="3" height="3"/>
		<rect x="248.8" y="324.2" class="st3" width="3" height="3"/>
		<rect x="248.8" y="339.2" class="st3" width="3" height="3"/>
		<rect x="248.8" y="344.3" class="st3" width="3" height="3"/>
		<rect x="248.8" y="354.3" class="st3" width="3" height="3"/>
		<rect x="248.8" y="359.3" class="st3" width="3" height="3"/>
		<rect x="248.8" y="364.3" class="st3" width="3" height="3"/>
		<rect x="248.8" y="369.3" class="st3" width="3" height="3"/>
		<rect x="253.6" y="264" class="st3" width="3" height="3"/>
		<rect x="253.6" y="269" class="st3" width="3" height="3"/>
		<rect x="253.6" y="274.1" class="st3" width="3" height="3"/>
		<rect x="253.6" y="279.1" class="st3" width="3" height="3"/>
		<rect x="253.6" y="284.1" class="st3" width="3" height="3"/>
		<rect x="253.6" y="289.1" class="st3" width="3" height="3"/>
		<rect x="253.6" y="294.1" class="st3" width="3" height="3"/>
		<rect x="253.6" y="299.1" class="st3" width="3" height="3"/>
		<rect x="253.6" y="304.1" class="st3" width="3" height="3"/>
		<rect x="253.6" y="309.2" class="st3" width="3" height="3"/>
		<rect x="253.6" y="314.2" class="st3" width="3" height="3"/>
		<rect x="253.6" y="319.2" class="st3" width="3" height="3"/>
		<rect x="253.6" y="324.2" class="st3" width="3" height="3"/>
		<rect x="253.6" y="329.2" class="st3" width="3" height="3"/>
		<rect x="253.6" y="339.2" class="st3" width="3" height="3"/>
		<rect x="253.6" y="349.3" class="st3" width="3" height="3"/>
		<rect x="253.6" y="354.3" class="st3" width="3" height="3"/>
		<rect x="253.6" y="359.3" class="st3" width="3" height="3"/>
		<rect x="253.6" y="364.3" class="st3" width="3" height="3"/>
		<rect x="253.6" y="369.3" class="st3" width="3" height="3"/>
		<rect x="224.7" y="292.6" class="st3" width="3" height="3"/>
		<rect x="224.7" y="297.6" class="st3" width="3" height="3"/>
		<rect x="224.7" y="302.7" class="st3" width="3" height="3"/>
		<rect x="224.7" y="307.7" class="st3" width="3" height="3"/>
		<rect x="224.7" y="312.7" class="st3" width="3" height="3"/>
		<rect x="224.7" y="317.7" class="st3" width="3" height="3"/>
		<rect x="224.7" y="332.7" class="st3" width="3" height="3"/>
		<rect x="224.7" y="337.8" class="st3" width="3" height="3"/>
		<rect x="224.7" y="342.8" class="st3" width="3" height="3"/>
		<rect x="224.7" y="347.8" class="st3" width="3" height="3"/>
		<rect x="224.7" y="352.8" class="st3" width="3" height="3"/>
		<rect x="224.7" y="357.8" class="st3" width="3" height="3"/>
		<rect x="224.7" y="362.8" class="st3" width="3" height="3"/>
		<rect x="229.5" y="292.6" class="st3" width="3" height="3"/>
		<rect x="229.5" y="297.6" class="st3" width="3" height="3"/>
		<rect x="229.5" y="302.7" class="st3" width="3" height="3"/>
		<rect x="229.5" y="307.7" class="st3" width="3" height="3"/>
		<rect x="229.5" y="312.7" class="st3" width="3" height="3"/>
		<rect x="229.5" y="317.7" class="st3" width="3" height="3"/>
		<rect x="229.5" y="332.7" class="st3" width="3" height="3"/>
		<rect x="229.5" y="337.8" class="st3" width="3" height="3"/>
		<rect x="229.5" y="342.8" class="st3" width="3" height="3"/>
		<rect x="229.5" y="347.8" class="st3" width="3" height="3"/>
		<rect x="229.5" y="352.8" class="st3" width="3" height="3"/>
		<rect x="229.5" y="357.8" class="st3" width="3" height="3"/>
		<rect x="229.5" y="367.9" class="st3" width="3" height="3"/>
		<rect x="387.3" y="270.5" class="st3" width="3" height="3"/>
		<rect x="387.3" y="275.6" class="st3" width="3" height="3"/>
		<rect x="387.3" y="280.6" class="st3" width="3" height="3"/>
		<rect x="387.3" y="285.6" class="st3" width="3" height="3"/>
		<rect x="387.3" y="290.6" class="st3" width="3" height="3"/>
		<rect x="387.3" y="295.6" class="st3" width="3" height="3"/>
		<rect x="387.3" y="300.6" class="st3" width="3" height="3"/>
		<rect x="387.3" y="305.6" class="st3" width="3" height="3"/>
		<rect x="387.3" y="310.7" class="st3" width="3" height="3"/>
		<rect x="387.3" y="315.7" class="st3" width="3" height="3"/>
		<rect x="387.3" y="320.7" class="st3" width="3" height="3"/>
		<rect x="387.3" y="330.7" class="st3" width="3" height="3"/>
		<rect x="387.3" y="335.7" class="st3" width="3" height="3"/>
		<rect x="387.3" y="340.8" class="st3" width="3" height="3"/>
		<rect x="387.3" y="345.8" class="st3" width="3" height="3"/>
		<rect x="387.3" y="350.8" class="st3" width="3" height="3"/>
		<rect x="387.3" y="355.8" class="st3" width="3" height="3"/>
		<rect x="387.3" y="360.8" class="st3" width="3" height="3"/>
		<rect x="387.3" y="365.8" class="st3" width="3" height="3"/>
		<rect x="392.1" y="270.5" class="st3" width="3" height="3"/>
		<rect x="392.1" y="275.6" class="st3" width="3" height="3"/>
		<rect x="392.1" y="280.6" class="st3" width="3" height="3"/>
		<rect x="392.1" y="285.6" class="st3" width="3" height="3"/>
		<rect x="392.1" y="290.6" class="st3" width="3" height="3"/>
		<rect x="392.1" y="295.6" class="st3" width="3" height="3"/>
		<rect x="392.1" y="300.6" class="st3" width="3" height="3"/>
		<rect x="392.1" y="305.6" class="st3" width="3" height="3"/>
		<rect x="392.1" y="310.7" class="st3" width="3" height="3"/>
		<rect x="392.1" y="315.7" class="st3" width="3" height="3"/>
		<rect x="392.1" y="320.7" class="st3" width="3" height="3"/>
		<rect x="392.1" y="325.7" class="st3" width="3" height="3"/>
		<rect x="392.1" y="330.7" class="st3" width="3" height="3"/>
		<rect x="392.1" y="335.7" class="st3" width="3" height="3"/>
		<rect x="392.1" y="340.8" class="st3" width="3" height="3"/>
		<rect x="392.1" y="345.8" class="st3" width="3" height="3"/>
		<rect x="392.1" y="350.8" class="st3" width="3" height="3"/>
		<rect x="392.1" y="355.8" class="st3" width="3" height="3"/>
		<rect x="392.1" y="360.8" class="st3" width="3" height="3"/>
		<rect x="392.1" y="365.8" class="st3" width="3" height="3"/>
		<rect x="363.9" y="290.1" class="st3" width="3" height="3"/>
		<rect x="363.9" y="295.1" class="st3" width="3" height="3"/>
		<rect x="363.9" y="300.1" class="st3" width="3" height="3"/>
		<rect x="363.9" y="305.1" class="st3" width="3" height="3"/>
		<rect x="363.9" y="310.1" class="st3" width="3" height="3"/>
		<rect x="363.9" y="315.1" class="st3" width="3" height="3"/>
		<rect x="363.9" y="320.2" class="st3" width="3" height="3"/>
		<rect x="363.9" y="325.2" class="st3" width="3" height="3"/>
		<rect x="363.9" y="330.2" class="st3" width="3" height="3"/>
		<rect x="363.9" y="335.2" class="st3" width="3" height="3"/>
		<rect x="368.7" y="290.1" class="st3" width="3" height="3"/>
		<rect x="368.7" y="295.1" class="st3" width="3" height="3"/>
		<rect x="368.7" y="300.1" class="st3" width="3" height="3"/>
		<rect x="368.7" y="305.1" class="st3" width="3" height="3"/>
		<rect x="368.7" y="310.1" class="st3" width="3" height="3"/>
		<rect x="368.7" y="315.1" class="st3" width="3" height="3"/>
		<rect x="368.7" y="320.2" class="st3" width="3" height="3"/>
		<rect x="368.7" y="325.2" class="st3" width="3" height="3"/>
		<rect x="368.7" y="330.2" class="st3" width="3" height="3"/>
		<path class="st3" d="M318.8,143.9c0-4.7,3.8-8.5,8.5-8.5c0.8,0,1.7,0.1,2.5,0.4c-0.1-0.9-0.2-1.7-0.2-2.6c0-9.9,8-18,18-18
			c1.1,0,2.3,0.1,3.4,0.3c4.5-7.4,14.2-9.8,21.6-5.3c4.6,2.8,7.5,7.8,7.6,13.3h0.3c8-0.4,14.8,5.7,15.3,13.7
			c0.4,8-5.7,14.8-13.7,15.3c-0.5,0-1,0-1.5,0h-53.3C322.5,152.3,318.8,148.5,318.8,143.9z"/>
		<path class="st3" d="M81.9,122.2c0-3,2.4-5.4,5.4-5.4l0,0c0.5,0,1.1,0.1,1.6,0.2c-0.9-6.3,3.4-12.1,9.7-13.1
			c1.3-0.2,2.6-0.2,3.8,0.1c2.9-4.7,9.1-6.2,13.8-3.3c2.9,1.8,4.7,5,4.8,8.4h0.2c5.1,0,9.3,4.2,9.3,9.3c0,5.1-4.2,9.3-9.3,9.3h-34
			C84.2,127.6,81.9,125.2,81.9,122.2z"/>
		<path class="st3" d="M229.2,110.7c0-1.8,1.5-3.3,3.3-3.3l0,0c0.3,0,0.7,0,1,0.1c-0.1-0.3-0.1-0.7-0.1-1c0-3.9,3.2-7,7.1-7
			c0.4,0,0.9,0,1.3,0.1c1.8-2.9,5.6-3.8,8.5-2.1c1.8,1.1,2.9,3.1,3,5.2h0.1c3.1,0,5.7,2.5,5.7,5.7s-2.5,5.7-5.7,5.7h-20.9
			C230.6,114.1,229.2,112.6,229.2,110.7z"/>
		<path class="st4" d="M77.1,367.4c0,0-4.5-15.2,4.6-18.2S96.3,339.1,96,331s9.3-15.9,16.6-8.3s6.3-5.8,15.9-9s17.8,4.6,15.2,11.8
			s6.9,11.7,18.3,5.6s23.9,5,21.5,13.7s-0.4,9.6,6.8,6.8s20.1,5.3,15.6,15.9S77.1,367.4,77.1,367.4z"/>
		<path class="st4" d="M319.6,375.7c-4.8-4.8-0.5-13,4.4-14s9.7-9.5,9.9-14.9s8.9-22,22.4-11.8s9.4,1.5,19.2-1.4s16,5.4,11.7,11.6
			c0,0,9.8-2.5,13.9,6.7s0,14.9,0,14.9s18.5-0.5,16.8,10.9S319.6,375.7,319.6,375.7z"/>
		<path class="st1" d="M434.1,369.2v13.2H61.5v-13.2c-0.1-2.2,1.5-4,3.7-4.1c0.1,0,0.1,0,0.2,0h364.8c2.2,0,3.9,1.8,3.9,4
			C434.1,369,434.1,369.1,434.1,369.2z"/>
		<rect x="82.7" y="365" class="st5" width="23.2" height="17.4"/>
		<rect x="127.1" y="365" class="st5" width="22.2" height="17.4"/>
		<rect x="170.6" y="365" class="st5" width="23.2" height="17.4"/>
		<rect x="215" y="365" class="st5" width="22.2" height="17.4"/>
		<rect x="258.4" y="365" class="st5" width="22.2" height="17.4"/>
		<rect x="301.8" y="365" class="st5" width="23.2" height="17.4"/>
		<rect x="346.2" y="365" class="st5" width="22.2" height="17.4"/>
		<rect x="389.7" y="365" class="st5" width="23.2" height="17.4"/>
	</g>
	<g id="freepik--Shadow--inject-13">
		<ellipse id="freepik--path--inject-13" class="st5" cx="250" cy="416.2" rx="193.9" ry="11.3"/>
	</g>
	<g id="freepik--Plant--inject-13">
		<path class="st6" d="M94.7,389.1h-1c0-1.3,1.1-32.3,6.5-37.6c5.6-5.4,12.1-0.1,12.2,0l-0.6,0.8c-0.2-0.2-5.9-4.8-10.9,0
			C95.8,357.1,94.7,388.8,94.7,389.1z"/>
		<path class="st6" d="M94.2,395.3l-1-0.1c0-0.4,3.5-37.6-10-53.1l0.8-0.6C97.8,357.3,94.4,393.8,94.2,395.3z"/>
		<path class="st6" d="M94.6,391.3c-0.1-1.8-2.7-43.2,7.7-52.8l0.7,0.7c-10,9.2-7.4,51.5-7.4,51.9L94.6,391.3z"/>
		<path class="st6" d="M93.2,391.3c0-0.3-0.3-28.1-7.7-32.3c-1.3-0.8-2.8-1-4.2-0.4c-4.3,1.8-6.6,10-6.6,10.1l-1-0.3
			c0.1-0.4,2.4-8.8,7.2-10.8c1.7-0.7,3.6-0.5,5.1,0.5c7.8,4.5,8.2,32,8.2,33.1L93.2,391.3z"/>
		<path class="st6" d="M96.3,391.3c0-0.9-1.2-22,4.8-29.8c1.6-2.1,3.4-3.1,5.3-2.9c4.3,0.3,7.6,6.1,7.7,6.3l-0.9,0.5
			c0-0.1-3.2-5.6-6.9-5.8c-1.6-0.1-3.1,0.8-4.4,2.5c-5.8,7.5-4.6,29-4.6,29.2L96.3,391.3z"/>
		<path class="st6" d="M95.2,394.2l-1-0.1c0-0.5,3.8-50.7-2.4-59.1l0.8-0.6C99,343.1,95.4,392.1,95.2,394.2z"/>
		<path class="st6" d="M79.2,362.7c0,0,3.8,1.4,2.7,4.7s-13.2,8.8-13.2,8.8s-5.1-4.6-0.4-12.2S79.1,360.3,79.2,362.7z"/>
		<path class="st7" d="M79.2,362.7c0,0,3.8,1.4,2.7,4.7s-13.2,8.8-13.2,8.8s-5.1-4.6-0.4-12.2S79.1,360.3,79.2,362.7z"/>
		<path class="st6" d="M95.9,356.4c0,0-4.1-0.2-4.3,3.3s8.8,13.2,8.8,13.2s6.5-2.3,5.1-11.1S96.9,354.2,95.9,356.4z"/>
		<path class="st7" d="M95.9,356.4c0,0-4.1-0.2-4.3,3.3s8.8,13.2,8.8,13.2s6.5-2.3,5.1-11.1S96.9,354.2,95.9,356.4z"/>
		<path class="st6" d="M99.3,339.5c0,0-2.7-0.3-2.5-1.9s10.6-5.9,16.7,1c0,0-3.9,6.7-9.6,6.8S99.3,339.5,99.3,339.5z"/>
		<path class="st7" d="M99.3,339.5c0,0-2.7-0.3-2.5-1.9s10.6-5.9,16.7,1c0,0-3.9,6.7-9.6,6.8S99.3,339.5,99.3,339.5z"/>
		<path class="st6" d="M94.3,335.5c0,0,2.5,1.2,3.2-0.3s-5.8-10.6-14.7-8c0,0-0.2,7.8,4.5,10.8S94.3,335.5,94.3,335.5z"/>
		<path class="st7" d="M94.3,335.5c0,0,2.5,1.2,3.2-0.3s-5.8-10.6-14.7-8c0,0-0.2,7.8,4.5,10.8S94.3,335.5,94.3,335.5z"/>
		<path class="st6" d="M107.2,361.4c0,0-1.9-1.5,0.2-2.2s12-0.5,12.1,9.3c0,0-11.6,1.9-13-1.8S107.2,361.4,107.2,361.4z"/>
		<path class="st7" d="M107.2,361.4c0,0-1.9-1.5,0.2-2.2s12-0.5,12.1,9.3c0,0-11.6,1.9-13-1.8S107.2,361.4,107.2,361.4z"/>
		<path class="st6" d="M83.6,339.3c0,0,1.9-1.5-0.2-2.3s-12-0.5-12.1,9.3c0,0,11.6,1.9,13-1.8S83.6,339.3,83.6,339.3z"/>
		<path class="st7" d="M83.6,339.3c0,0,1.9-1.5-0.2-2.3s-12-0.5-12.1,9.3c0,0,11.6,1.9,13-1.8S83.6,339.3,83.6,339.3z"/>
		<path class="st6" d="M89.7,347.2c0,0,0.2-1.9-1.3-1.1s-6.7,6.3-1.3,11.6c0,0,7.2-5.4,5.9-8.1S89.7,347.2,89.7,347.2z"/>
		<path class="st7" d="M89.7,347.2c0,0,0.2-1.9-1.3-1.1s-6.7,6.3-1.3,11.6c0,0,7.2-5.4,5.9-8.1S89.7,347.2,89.7,347.2z"/>
		<path class="st6" d="M108.8,349.8c0,0-1.1-1.5,0.5-1.6s9,1.8,7.3,9.1c0,0-9-0.7-9.4-3.7S108.8,349.8,108.8,349.8z"/>
		<path class="st7" d="M108.8,349.8c0,0-1.1-1.5,0.5-1.6s9,1.8,7.3,9.1c0,0-9-0.7-9.4-3.7S108.8,349.8,108.8,349.8z"/>
		<polygon class="st8" points="78.5,418.6 109.3,418.6 112.6,384.9 75.2,384.9 		"/>
		<rect x="73.6" y="381.2" class="st8" width="40.7" height="7.4"/>
		<rect x="73.6" y="381.2" class="st7" width="40.7" height="7.4"/>
	</g>
	<g id="freepik--Device--inject-13">
		<path class="st8" d="M173.6,143.9H147l-0.2-2.7c0-0.3,0.2-0.7,0.6-0.7c0,0,0,0,0.1,0h25.3c0.4,0,0.7,0.3,0.8,0.7L173.6,143.9z"/>
		<path class="st8" d="M143.6,143.9H117l-0.2-2.7c0-0.3,0.2-0.7,0.6-0.7c0,0,0,0,0.1,0h25.3c0.4,0,0.7,0.3,0.8,0.7L143.6,143.9z"/>
		<path class="st8" d="M355.6,141.9H92.8c-3.3-0.1-6,2.6-6.1,5.9c0,0.2,0,0.4,0,0.6l14.6,172.8c0.4,3.7,3.5,6.5,7.2,6.5h262.8
			c3.3,0.1,6-2.6,6.1-5.9c0-0.2,0-0.4,0-0.6l-14.6-172.8C362.4,144.7,359.3,141.9,355.6,141.9z"/>
		<path class="st7" d="M371.3,327.8H112.5c-3.7,0-6.8-2.8-7.2-6.5L90.7,148.4c-0.3-3.3,2.1-6.2,5.4-6.5c0.2,0,0.4,0,0.6,0h258.8
			c3.7,0,6.8,2.8,7.2,6.5l14.6,172.8c0.3,3.3-2.1,6.2-5.4,6.5C371.7,327.7,371.5,327.8,371.3,327.8z"/>
		<polygon class="st6" points="358.8,322.4 115.9,322.4 101.1,147.3 344,147.3 		"/>
		<g class="st9">
			<path class="st10" d="M104.5,231.4c-0.1-1-0.9-1.7-1.9-1.8c-0.9,0-1.6,0.7-1.6,1.6c0,0.1,0,0.1,0,0.2c0.1,1,0.9,1.7,1.9,1.8
				c0.9,0,1.6-0.7,1.6-1.6C104.5,231.5,104.5,231.4,104.5,231.4z"/>
			<path class="st10" d="M103.3,238.3c-0.4,0-0.8,0.3-0.8,0.8c0,0,0,0.1,0,0.1c0.1,0.5,0.5,0.9,1,0.9c0.4,0,0.8-0.3,0.8-0.8
				c0,0,0-0.1,0-0.1C104.3,238.6,103.8,238.3,103.3,238.3z"/>
		</g>
		<path class="st11" d="M365.8,234.8c0.3,2.7-1.7,5.1-4.4,5.4c-0.2,0-0.4,0-0.6,0c-3.1,0-5.6-2.3-5.9-5.4c-0.3-2.7,1.7-5.1,4.4-5.3
			c0.2,0,0.4,0,0.6,0C362.9,229.5,365.5,231.8,365.8,234.8z"/>
		<path class="st8" d="M90.7,170.8H89c-0.4,0-0.7-0.3-0.8-0.7L87,155.7c0-0.3,0.2-0.7,0.6-0.7c0,0,0,0,0.1,0h1.7
			c0.4,0,0.7,0.3,0.8,0.7l1.2,14.4C91.4,170.5,91.1,170.8,90.7,170.8C90.7,170.8,90.7,170.8,90.7,170.8z"/>
		<path class="st7" d="M90.7,170.8H89c-0.4,0-0.7-0.3-0.8-0.7L87,155.7c0-0.3,0.2-0.7,0.6-0.7c0,0,0,0,0.1,0h1.7
			c0.4,0,0.7,0.3,0.8,0.7l1.2,14.4C91.4,170.5,91.1,170.8,90.7,170.8C90.7,170.8,90.7,170.8,90.7,170.8z"/>
		<polygon class="st12" points="358.8,322.4 115.9,322.4 101.1,147.3 344,147.3 		"/>
		<polygon class="st13" points="263.5,189.5 268.1,243.3 352.1,243.3 353.8,264.2 303,264.2 308,322.4 298.5,322.4 293.5,264.2 
			222.3,264.2 227.2,322.4 206,322.4 201.1,264.2 149.9,264.2 152.7,297.2 143.6,301.5 115.3,314.8 114.4,304.5 142.7,291.2 
			140.4,264.2 111,264.2 109.2,243.3 199.3,243.3 195.9,203.1 101.5,151.9 101.1,147.3 111.9,147.3 195,192.3 191.2,147.3 
			212.4,147.3 220.6,243.3 258.6,243.3 250.5,147.3 260,147.3 262.7,180.1 346.7,180.1 347.5,189.5 		"/>
		<polygon class="st14" points="159.7,238.3 194.3,238.3 192.4,215.6 157.8,215.6 		"/>
		<polygon class="st14" points="155.5,223.7 140.7,223.7 141.9,238.3 156.8,238.3 		"/>
		<polygon class="st14" points="124.1,238.3 139,238.3 137.7,223.7 122.9,223.7 		"/>
		<polygon class="st14" points="130.9,173.2 113.7,163.9 109.9,171.5 127.1,180.8 		"/>
		<polygon class="st14" points="146.5,191.3 150.3,183.7 133.1,174.4 129.3,182 		"/>
		<polygon class="st14" points="165.9,201.7 169.7,194.1 152.4,184.8 148.7,192.4 		"/>
		<path class="st14" d="M123.1,190.2h-4.8c-3.4-0.1-6.2,2.6-6.3,6c0,0.3,0,0.5,0,0.8l1.2,13.6c0.4,3.8,3.6,6.7,7.4,6.8h4.7
			c3.4,0.1,6.2-2.6,6.3-6c0-0.2,0-0.5,0-0.7l-1.2-13.6C130.1,193.2,126.9,190.3,123.1,190.2z"/>
		<polygon class="st14" points="250.9,215.6 223.2,215.6 225,236.8 252.7,236.8 		"/>
		<polygon class="st14" points="232.8,207.4 250.2,207.4 248.8,190.2 231.4,190.2 		"/>
		<polygon class="st14" points="237.4,165.9 219,165.9 220.6,184 238.9,184 		"/>
		<polygon class="st14" points="284.4,156.9 266,156.9 267.5,175 285.9,175 		"/>
		<polygon class="st14" points="272.8,236.8 296.2,236.8 295.4,226.9 271.9,226.9 		"/>
		<polygon class="st14" points="299.9,236.8 323.4,236.8 322.6,226.9 299.1,226.9 		"/>
		<polygon class="st14" points="327.1,236.8 344.2,236.8 343.4,226.9 326.3,226.9 		"/>
		<path class="st14" d="M267.7,283c-8.6-0.2-15.8,6.6-16.1,15.2c0,0.7,0,1.3,0.1,2c1,9.7,9.1,17,18.9,17.1
			c8.6,0.3,15.8-6.5,16.1-15.2c0-0.7,0-1.3-0.1-2C285.5,290.5,277.4,283.1,267.7,283z"/>
		
			<ellipse transform="matrix(0.6222 -0.7828 0.7828 0.6222 -40.6132 336.1267)" class="st14" cx="328" cy="210.1" rx="10.9" ry="11.9"/>
		<polygon class="st14" points="249.2,269.6 227.8,269.6 228.9,283 250.3,283 		"/>
		<polygon class="st14" points="313.4,303 325.6,303 322.8,269.6 310.6,269.6 		"/>
		<polygon class="st14" points="328.8,269.6 330,283 351.4,283 350.2,269.6 		"/>
		<polygon class="st14" points="122.7,283 136.3,283 135.1,269.6 121.5,269.6 		"/>
		<polygon class="st14" points="161.1,288.8 183,288.8 181.5,271.1 159.6,271.1 		"/>
		<polygon class="st14" points="159.5,317.4 199.7,317.4 198.6,305.1 158.5,305.1 		"/>
		<polygon class="st14" points="163.9,165.7 185.8,177.2 184.2,157.5 163.2,157.5 		"/>
		<path class="st8" d="M204.4,151.4c-3.6-3.4-9.3-3.1-12.6,0.5c-3.2,3.4-3.2,8.7,0,12.1l6.3,6.3l6.3-6.3
			C207.8,160.5,207.8,154.9,204.4,151.4z M200.5,160.2c-1.4,1.4-3.6,1.4-4.9,0s-1.4-3.6,0-4.9s3.6-1.4,4.9,0c0,0,0,0,0,0
			C201.9,156.6,201.9,158.8,200.5,160.2C200.5,160.2,200.5,160.2,200.5,160.2z"/>
		<path class="st7" d="M204.4,164l-6.4,6.3v-9.1c1.9,0,3.5-1.6,3.5-3.5s-1.6-3.5-3.5-3.5l0,0v-5.4c4.9,0,9,4,9,8.9
			C207,160,206.1,162.3,204.4,164z"/>
		<path class="st8" d="M321.8,212.2c-3.5-3.5-9.1-3.5-12.6,0s-3.5,9.1,0,12.6l6.3,6.3l6.3-6.3C325.3,221.4,325.3,215.7,321.8,212.2
			C321.8,212.3,321.8,212.3,321.8,212.2z M318,221c-1.4,1.4-3.6,1.4-4.9,0c-1.4-1.4-1.4-3.6,0-4.9c1.4-1.4,3.6-1.4,4.9,0
			c0,0,0,0,0,0C319.4,217.4,319.4,219.6,318,221C318,221,318,221,318,221z"/>
		<path class="st7" d="M321.8,224.9l-6.3,6.3V222c1.9,0,3.5-1.6,3.5-3.5s-1.6-3.5-3.5-3.5v-5.4c4.9,0,8.9,4,8.9,9
			C324.4,220.9,323.5,223.1,321.8,224.9L321.8,224.9z"/>
		<path class="st8" d="M201.5,294.5c-3.5-3.5-9.1-3.5-12.6,0s-3.5,9.1,0,12.6l6.3,6.3l6.3-6.3C205,303.6,205,298,201.5,294.5
			C201.5,294.5,201.5,294.5,201.5,294.5z M197.7,303.3c-1.4,1.4-3.6,1.4-4.9,0c-1.4-1.4-1.4-3.6,0-4.9s3.6-1.4,4.9,0c0,0,0,0,0,0
			C199,299.7,199,301.9,197.7,303.3C197.7,303.3,197.7,303.3,197.7,303.3z"/>
		<path class="st7" d="M201.5,307.1l-6.3,6.3v-9.1c1.9,0,3.5-1.6,3.5-3.5s-1.6-3.5-3.5-3.5v-5.5c4.9,0,8.9,4,8.9,9
			C204.1,303.2,203.2,305.4,201.5,307.1L201.5,307.1z"/>
	</g>
	<g id="freepik--location-3--inject-13">
		<path class="st15" d="M331.9,156H227.8c-3.1,0-5.6,2.5-5.6,5.6v37.7c0,3.1,2.5,5.6,5.6,5.6h76.2l10.1,7.8l-3-7.8h21
			c3.1,0,5.6-2.5,5.6-5.6v-37.7C337.6,158.5,335.1,156,331.9,156C332,156,331.9,156,331.9,156z"/>
		<path class="st6" d="M334.9,153H230.8c-3.1,0-5.6,2.5-5.6,5.6v37.7c0,3.1,2.5,5.6,5.6,5.6h76.2l7.1,10.8v-10.8h21
			c3.1,0,5.6-2.5,5.6-5.6v-37.7C340.6,155.5,338.1,153,334.9,153C335,153,334.9,153,334.9,153z"/>
		<path class="st12" d="M266.6,163.6v27.7c0,0.4-0.1,0.9-0.3,1.2c0,0,0,0.1,0,0.1c-0.1,0.1-0.1,0.2-0.2,0.3c-0.3,0.4-0.6,0.7-1,0.9
			c-0.3,0.2-0.6,0.3-1,0.3c-0.1,0-0.2,0-0.3,0h-28c-0.2,0-0.4,0-0.6-0.1l0,0h-0.1c-0.2-0.1-0.4-0.2-0.6-0.3
			c-0.1-0.1-0.2-0.1-0.4-0.2c-0.2-0.2-0.4-0.4-0.6-0.6c-0.3-0.4-0.4-0.9-0.5-1.4c0-0.1,0-0.1,0-0.2v-27.7c0-1.5,1.2-2.8,2.8-2.8
			h27.8C265.4,160.7,266.6,162,266.6,163.6z"/>
		<path class="st0" d="M326.2,172.6h-47.1c-0.7,0-1.2-0.6-1.2-1.2l0,0c0-0.7,0.6-1.2,1.2-1.2h47.1c0.7,0,1.2,0.6,1.2,1.2l0,0l0,0
			C327.4,172,326.9,172.6,326.2,172.6C326.2,172.6,326.2,172.6,326.2,172.6z"/>
		<path class="st0" d="M311,160.7h-31.5c-1-0.1-1.8,0.7-1.9,1.6s0.7,1.8,1.6,1.9c0.1,0,0.2,0,0.3,0H311c1-0.1,1.7-0.9,1.6-1.9
			C312.6,161.5,311.9,160.8,311,160.7z"/>
		<path class="st0" d="M307.2,177.6h-28.1c-0.7,0-1.2-0.6-1.2-1.2l0,0c0-0.7,0.6-1.2,1.2-1.2h28.1c0.7,0,1.2,0.6,1.2,1.2l0,0
			C308.4,177.1,307.9,177.6,307.2,177.6z"/>
		<path class="st8" d="M245.1,161.3c3.4-2.9,8-4,12.3-2.7c7.1,2.2,4,15.4,4,15.4c2.4,2.7,3.1,6.6,1.8,10c-2.2,5.9-19.2,7.2-24.9,2.1
			s0.9-17.8,4.2-19.3S245.1,161.3,245.1,161.3z"/>
		<path class="st6" d="M265.1,193.8c-0.3,0.2-0.6,0.3-1,0.3c-0.1,0-0.2,0-0.3,0h-28c-0.2,0-0.4,0-0.6-0.1l0,0h-0.1
			c-0.2-0.1-0.4-0.2-0.6-0.3c-0.1-0.1-0.2-0.1-0.4-0.2c-0.2-0.2-0.4-0.4-0.6-0.6c-0.1-0.4-0.2-0.9-0.3-1.4c2-0.3,3.9-0.6,5.9-0.8
			c1.5-0.1,2.9-0.2,4.4-0.3c0.7,0,1.4,0,2.1-0.1c2.4,0,4.9,0,7.3,0.2l1.6,0.1c2.3,0.3,4.7,0.7,6.5,1.1s3.4,0.7,3.4,0.7
			S264.9,192.6,265.1,193.8z"/>
		<path class="st16" d="M265.1,193.8c-0.3,0.2-0.6,0.3-1,0.3c-0.1,0-0.2,0-0.3,0h-28c-0.2,0-0.4,0-0.6-0.1l0,0h-0.1
			c-0.2-0.1-0.4-0.2-0.6-0.3c-0.1-0.1-0.2-0.1-0.4-0.2c-0.2-0.2-0.4-0.4-0.6-0.6c-0.1-0.4-0.2-0.9-0.3-1.4c2-0.3,3.9-0.6,5.9-0.8
			c1.5-0.1,2.9-0.2,4.4-0.3c0.7,0,1.4,0,2.1-0.1c2.4,0,4.9,0,7.3,0.2l1.6,0.1c2.3,0.3,4.7,0.7,6.5,1.1s3.4,0.7,3.4,0.7
			S264.9,192.6,265.1,193.8z"/>
		<path class="st17" d="M254,194.1h-6.2c-1.2-0.6-2.2-1.5-3-2.7c0.4-0.3,0.8-0.7,1.1-1.1c0.3-0.4,0.5-0.8,0.7-1.2
			c0.7-1.9,0.9-3.9,0.4-5.9l0,0c-0.1-0.8-0.3-1.3-0.4-1.4l0,0l7,2.3c-0.1,0.5-0.2,0.9-0.4,1.3c-0.1,0.6-0.2,1.2-0.3,1.6
			c-0.1,0.7-0.1,1.3-0.1,2c0,0.5,0.1,1,0.3,1.5c0.4,1,1.1,1.1,1.1,1.1C254.7,192.5,254.5,193.4,254,194.1z"/>
		<path class="st15" d="M253.6,184.1c-0.3,1-0.5,2-0.7,3c-3.3-1.3-6.3-5.3-6.3-5.3L253.6,184.1z"/>
		<path class="st17" d="M249.9,163.5c6.2-0.6,8.6,2.5,9.7,8.9c1.4,8,0.2,13.9-7.8,12.9C241,184,239.6,164.5,249.9,163.5z"/>
		<path class="st18" d="M255.5,172.4c0.6,0.9,1.3,1.7,2.1,2.4c-0.3,0.6-0.9,0.9-1.6,0.9L255.5,172.4z"/>
		<path class="st8" d="M251.6,172.3c0.1,0.5-0.2,1-0.5,1s-0.7-0.3-0.7-0.9s0.2-1,0.5-1S251.6,171.8,251.6,172.3z"/>
		<path class="st8" d="M250.8,171.5l1.1-0.6C251.8,170.9,251.4,171.9,250.8,171.5z"/>
		<path class="st8" d="M258,171.4c0.1,0.5-0.2,1-0.5,1s-0.7-0.3-0.7-0.9s0.2-1,0.5-1S257.9,170.9,258,171.4z"/>
		<path class="st8" d="M257.1,170.6l1.1-0.6C258.2,170.1,257.8,171.1,257.1,170.6z"/>
		<path class="st8" d="M248.6,169.6c-0.1,0-0.1,0-0.2-0.1c-0.2-0.1-0.2-0.3-0.1-0.5c0.7-0.9,1.8-1.4,2.9-1.4c0.2,0,0.4,0.2,0.4,0.4
			c0,0.2-0.2,0.3-0.4,0.4c-0.9,0-1.7,0.4-2.3,1.1C248.8,169.5,248.7,169.6,248.6,169.6z"/>
		<path class="st8" d="M258.2,167.9c-0.1,0-0.1,0-0.2,0c-0.7-0.4-1.5-0.5-2.2-0.3c-0.2,0.1-0.4,0-0.5-0.2s0-0.4,0.2-0.5
			c0.9-0.4,2-0.3,2.9,0.3c0.2,0.1,0.2,0.3,0.2,0.5c0,0,0,0,0,0C258.5,167.9,258.3,167.9,258.2,167.9z"/>
		<path class="st8" d="M255.4,178.3c-0.2,0.7-0.4,1.5-0.5,2.2c-0.1,0-0.3,0-0.4,0c-1.8,0-2.7-0.6-3.1-1.3c-0.2-0.3-0.3-0.7-0.3-1.1
			c0-0.2,0-0.4,0-0.6c1.1,0.5,2.4,0.8,3.6,0.8C255.1,178.3,255.4,178.3,255.4,178.3z"/>
		<path class="st0" d="M254.7,178.3l-0.2,0.7c-1.7,0-2.9-0.2-3.5-0.8c0-0.2,0-0.4,0-0.6C252.2,178,253.5,178.3,254.7,178.3z"/>
		<path class="st18" d="M254.4,180.5c-1.8,0-2.7-0.6-3.1-1.3c0.7,0,1.4,0.2,2,0.4C253.8,179.8,254.2,180.1,254.4,180.5z"/>
		<path class="st8" d="M244.1,174.7c0,0,2.4-5.4,1.6-9.3c0,0,11.9-6.3,13.7,6.2c0,0,0.1-11.3-10.6-10.4s-9.1,16.5-3.1,20.6
			C245.6,181.8,242.7,178.1,244.1,174.7z"/>
		<path class="st17" d="M245.3,175.9c-0.3-1.5-1.7-2.5-3.2-2.2c0,0,0,0,0,0c-1.9,0.4-2.4,4.5,2.5,4.9
			C245.3,178.7,245.6,178,245.3,175.9z"/>
		<path class="st17" d="M265.1,193.8c-0.3,0.2-0.6,0.3-1,0.3c-0.1,0-0.2,0-0.3,0h-28c-0.2,0-0.4,0-0.6-0.1l0,0h-0.1
			c-0.2-0.1-0.4-0.2-0.6-0.3c-0.1-0.1-0.2-0.1-0.4-0.2c-0.2-0.2-0.4-0.4-0.6-0.6c-0.1-0.4-0.2-0.9-0.3-1.4c2-0.3,3.9-0.6,5.9-0.8
			c1.5-0.1,2.9-0.2,4.4-0.3c0.7,0,1.4,0,2.1-0.1c2.4,0,4.9,0,7.3,0.2l1.6,0.1c2.3,0.3,4.7,0.7,6.5,1.1s3.4,0.7,3.4,0.7
			S264.9,192.6,265.1,193.8z"/>
		<path class="st0" d="M240.9,194.1h-5c-0.2,0-0.4,0-0.6-0.1l0,0h-0.1c-0.2-0.1-0.4-0.2-0.6-0.3c-0.1-0.1-0.2-0.1-0.4-0.2
			c-0.2-0.2-0.4-0.4-0.6-0.6c-0.3-0.4-0.4-0.9-0.5-1.4l5.6-1.7c0,0,0.2,0.3,0.5,1S240.3,192.6,240.9,194.1z"/>
		<path class="st0" d="M266.3,192.5C266.3,192.5,266.3,192.6,266.3,192.5c-0.1,0.2-0.1,0.3-0.2,0.4c-0.3,0.4-0.6,0.7-1,0.9
			c-0.3,0.2-0.6,0.3-1,0.3c-0.1,0-0.2,0-0.3,0h-4.5c-0.2-1.6-0.3-3.6-0.3-3.6L266.3,192.5z"/>
		<path class="st8" d="M249.9,163.5c0,0,1.2,7.9-6.1,10.4c-8.8,3.1-9.2,12.2-1.3,14.4c0,0-8-1.9-8.9-7.4s4.7-13.1,4.7-13.1
			s-1.9-4.8,5.3-7.4C247.6,158.9,249.9,163.5,249.9,163.5z"/>
		<path class="st8" d="M249,170.9c0,0-0.1,0-0.1,0c-0.1-0.1-0.2-0.2-0.1-0.3c2.9-5.3,0.4-7.8,0.3-7.9c-0.1-0.1-0.1-0.3,0-0.4
			c0.1-0.1,0.3-0.1,0.4,0c0.1,0.1,2.9,2.9-0.2,8.5C249.2,170.9,249.1,170.9,249,170.9z"/>
		<path class="st8" d="M262.1,186.7c-0.1,0-0.1,0-0.2-0.1c-0.1-0.1-0.1-0.2,0-0.3c0,0,0,0,0,0c1.6-1.4,2.5-3.4,2.5-5.6
			c-0.1-3.9-3.8-7.1-3.8-7.1c-0.1-0.1-0.1-0.2,0-0.3c0,0,0,0,0,0c0.1-0.1,0.3-0.1,0.4,0c0.2,0.1,3.8,3.3,4,7.5
			c0,2.3-0.9,4.4-2.6,5.9C262.2,186.7,262.1,186.8,262.1,186.7z"/>
	</g>
	<g id="freepik--location-2--inject-13">
		<path class="st15" d="M237.8,86.6H133.6c-3.1,0-5.6,2.5-5.6,5.6v37.7c0,3.1,2.5,5.6,5.6,5.6h52.8l8.6,15.8l-1.7-15.9h44.4
			c3.1,0,5.6-2.5,5.6-5.6v0V92.2C243.3,89.1,240.8,86.6,237.8,86.6z"/>
		<path class="st6" d="M240.8,83.6H136.6c-3.1,0-5.6,2.5-5.6,5.6v37.7c0,3.1,2.5,5.6,5.6,5.6h52.8l5.6,18.8l1.3-18.9h44.4
			c3.1,0,5.6-2.5,5.6-5.6c0,0,0,0,0,0V89.2C246.3,86.1,243.8,83.6,240.8,83.6z"/>
		<path class="st12" d="M172.4,94.1v27.7c0,0,0,0.1,0,0.1c0,0.4-0.1,0.8-0.3,1.2c-0.1,0.1-0.1,0.2-0.2,0.3c-0.4,0.5-0.9,0.9-1.4,1.1
			c-0.2,0.1-0.3,0.1-0.5,0.1c-0.1,0-0.2,0-0.3,0h-28c-0.2,0-0.4,0-0.6-0.1l0,0h-0.1c-0.2-0.1-0.4-0.2-0.6-0.3
			c-0.1-0.1-0.2-0.1-0.4-0.2c-0.2-0.1-0.3-0.3-0.5-0.5c-0.1-0.1-0.2-0.3-0.2-0.4c-0.2-0.4-0.4-0.9-0.4-1.3V94.1
			c0-1.5,1.2-2.8,2.8-2.8h27.8C171.2,91.3,172.4,92.6,172.4,94.1C172.4,94.1,172.4,94.1,172.4,94.1z"/>
		<path class="st0" d="M232,103.1h-47.1c-0.7,0-1.2-0.5-1.2-1.2l0,0c0-0.7,0.6-1.2,1.2-1.2l0,0H232c0.7,0,1.2,0.6,1.2,1.2l0,0l0,0
			C233.2,102.6,232.7,103.1,232,103.1z"/>
		<path class="st0" d="M216.9,91.3h-31.5c-1-0.1-1.8,0.7-1.9,1.6s0.7,1.8,1.6,1.9c0.1,0,0.2,0,0.3,0h31.5c1,0.1,1.8-0.7,1.9-1.6
			s-0.7-1.8-1.6-1.9C217,91.3,216.9,91.3,216.9,91.3z"/>
		<path class="st0" d="M213,108.2h-28.1c-0.7,0-1.2-0.6-1.2-1.2l0,0c0-0.7,0.6-1.2,1.2-1.2H213c0.7,0,1.2,0.6,1.2,1.2l0,0
			C214.2,107.7,213.7,108.2,213,108.2z"/>
		<path class="st8" d="M167,124.7h-19.2c0-0.5,0-0.9,0-1.4c0-0.1,0-0.3,0-0.4c0-0.1,0-0.2,0.1-0.3c0.1-1,0.8-1.9,1.6-2.4
			c0.4-0.1,0.8-0.2,1.4-0.3l0,0l0.9-0.2l0,0l0.9-0.1c1.9-0.3,3.9-0.4,5.9-0.4c0.6,0,1.3,0,1.9,0.1c0.2,0,0.4,0,0.5,0.1
			c1,0.1,2,0.5,2.9,1l0,0c0.6,0.5,1.2,1,1.6,1.7c0.3,0.4,0.5,0.7,0.7,1.1C166.5,123.6,166.8,124.1,167,124.7z"/>
		<path class="st8" d="M172.4,121.9c0,0.4-0.1,0.8-0.3,1.2c-0.1,0.1-0.1,0.2-0.2,0.3c-0.4,0.5-0.9,0.9-1.4,1.1
			c-0.2,0.1-0.3,0.1-0.5,0.1c-0.1,0-0.2,0-0.3,0h-28c-0.2,0-0.4,0-0.6-0.1l0,0h-0.1c-0.2-0.1-0.4-0.2-0.6-0.3
			c-0.1-0.1-0.2-0.1-0.4-0.2c-0.2-0.1-0.3-0.3-0.5-0.5c1.2-0.1,3-0.3,5.1-0.4l0,0l2-0.2l0.7-0.1h0.3l2.1-0.2c0.1,0,0.3,0,0.5,0l0,0
			c2-0.2,4.2-0.3,6.5-0.4l0,0l3.7-0.2l2.6-0.1h0.8h0.8h0.8h0.3h1.2C168.9,121.9,170.6,121.9,172.4,121.9z"/>
		<path class="st19" d="M172.4,121.9c0,0.4-0.1,0.8-0.3,1.2c-0.1,0.1-0.1,0.2-0.2,0.3c-0.4,0.5-0.9,0.9-1.4,1.1
			c-0.2,0.1-0.3,0.1-0.5,0.1c-0.1,0-0.2,0-0.3,0h-28c-0.2,0-0.4,0-0.6-0.1l0,0h-0.1c-0.2-0.1-0.4-0.2-0.6-0.3
			c-0.1-0.1-0.2-0.1-0.4-0.2c-0.2-0.1-0.3-0.3-0.5-0.5c1.2-0.1,3-0.3,5.1-0.4l0,0l2-0.2l0.7-0.1h0.3l2.1-0.2c0.1,0,0.3,0,0.5,0l0,0
			c2-0.2,4.2-0.3,6.5-0.4l0,0l3.7-0.2l2.6-0.1h0.8h0.8h0.8h0.3h1.2C168.9,121.9,170.6,121.9,172.4,121.9z"/>
		<path class="st17" d="M162.6,124.7h-7.7l-0.3-0.1c-1.5-0.3-2.9-0.9-4.1-1.9l0,0l-0.2-0.2c0.8-0.8,1.3-1.7,1.6-2.8l0,0
			c0.1-0.2,0.1-0.4,0.2-0.6c0.3-1.4,0.5-2.8,0.6-4.2l0,0c0-0.1,0-0.2,0-0.2c0-1.3,0-2.5-0.1-3.8c-0.1-1.1-0.2-2.2-0.4-3.2
			c-0.1-0.6-0.2-1.2-0.3-1.7l0.9,0.8l0.1,0.1l3.5,3l1,0.9l3.5,3.1c-0.1,0.5-0.3,1.1-0.4,1.6v0.2c-0.2,0.9-0.2,1.8-0.1,2.8
			c0,0.2,0.1,0.3,0.1,0.5c0,0.2,0.1,0.3,0.1,0.5c0,0,0,0.1,0,0.1c0.2,0.5,0.4,0.9,0.8,1.3c0.5,0.6,1.2,1.1,1.9,1.4
			c0.5,0.2,1.1,0.4,1.6,0.6l0,0C165.4,123.6,163.9,124.2,162.6,124.7z"/>
		<path class="st15" d="M153.6,110.6c-0.1,5.7,4.5,7.7,6.7,8.2c-0.2-1.1-0.2-2.2,0-3.2L153.6,110.6z"/>
		<path class="st0" d="M165.5,124.7h-15.7l-2-1.4l-0.4-0.3l0.1-0.1l0.4-0.3l1.6-1.5l1.4-1.2l0,0l0.9-0.9l0.1,0.1l0.7,0.5l4.2,2.8
			l0,0l2.9,1.9l0.8-2l0.6-1.5h0.1l2.6,1.3l0.3,0.1c0.2,0.1,0.4,0.3,0.6,0.4l0,0c0.2,0.2,0.3,0.4,0.4,0.6c0,0.1,0.1,0.1,0.1,0.2
			C165.5,123.8,165.5,124.2,165.5,124.7z"/>
		<path class="st8" d="M166.3,92.7c2.8,1.7,3.5,8.6-0.4,13.1s-7.8-12-7.8-12S164.5,91.6,166.3,92.7z"/>
		<path class="st17" d="M153.8,116.2c2.8,2.5,6.8,2.9,10,0.9c2-1.2,3.5-3.1,4.1-5.4c0.1-0.3,0.2-0.6,0.2-1c1-6-0.5-15.7-7.1-17.9
			c-4.7-1.6-9.8,0.9-11.4,5.6c-0.5,1.3-0.6,2.8-0.4,4.2C150.1,109.1,150.3,113,153.8,116.2z"/>
		<path class="st8" d="M159.4,103.8c0,0.5,0.3,1,0.7,0.9s0.6-0.5,0.6-1s-0.4-0.9-0.7-0.9S159.4,103.3,159.4,103.8z"/>
		<path class="st8" d="M165.4,103.4c0,0.5,0.4,1,0.7,0.9s0.6-0.5,0.6-1s-0.4-1-0.7-0.9S165.4,102.9,165.4,103.4z"/>
		<path class="st18" d="M163.5,103.8c0.7,1.6,1.7,3.1,2.8,4.4c-0.7,0.6-1.6,0.8-2.5,0.6L163.5,103.8z"/>
		<path class="st8" d="M167.5,100.7c-0.1,0.1-0.2,0.1-0.3,0c-0.7-0.4-1.5-0.4-2.3-0.1c-0.1,0.1-0.3,0.1-0.4-0.1
			c-0.1-0.1-0.1-0.3,0.1-0.4c0,0,0,0,0,0l0,0c0.9-0.4,2-0.4,2.9,0.1c0.2,0.1,0.2,0.3,0.1,0.4c0,0,0,0,0,0l0,0
			C167.6,100.6,167.6,100.7,167.5,100.7z"/>
		<path class="st8" d="M158.1,101.5c-0.1,0-0.1,0-0.2,0c-0.1-0.1-0.1-0.3,0-0.4c0,0,0,0,0,0l0,0c0.7-0.7,1.7-1.1,2.7-0.9
			c0.2,0,0.3,0.2,0.2,0.4l0,0c0,0.2-0.2,0.3-0.4,0.2l0,0c-0.8-0.1-1.6,0.2-2.1,0.7C158.2,101.5,158.1,101.5,158.1,101.5z"/>
		<path class="st8" d="M153.6,94.1l0.2,1c-0.9,0.6-0.9,3.6-0.3,4.7c1.2,2.3,0.2,6.2-1.4,7.9c0,0-0.2-1-1-0.7s0,5.8,2,8.2
			c0,0-2.9-2.1-5-7.6c-2-5.2-2.6-9.6-1.8-11.7L153.6,94.1z"/>
		<path class="st17" d="M146.8,108.2c0.8,1.4,2.2,2.5,3.8,2.9c2.1,0.6,3.2-1.3,2.6-3.3c-0.6-1.8-2.3-4.2-4.4-3.9
			c-1.5,0.2-2.6,1.7-2.3,3.2C146.4,107.5,146.6,107.8,146.8,108.2z"/>
		<path class="st8" d="M163.5,110.6c-0.3,0.8-0.5,1.6-0.7,2.4h-0.4c-2-0.1-2.9-0.8-3.3-1.6c-0.2-0.4-0.3-0.8-0.2-1.2
			c0-0.2,0-0.5,0.1-0.7c1.2,0.6,2.5,0.9,3.9,1C163.1,110.6,163.3,110.6,163.5,110.6z"/>
		<path class="st0" d="M162.9,110.5l-0.2,0.7c-1.9-0.1-3.2-0.4-3.7-1c0-0.2,0-0.5,0.1-0.7C160.2,110.1,161.5,110.5,162.9,110.5z"/>
		<path class="st18" d="M162.4,113c-2-0.1-2.9-0.8-3.3-1.6c0.8,0.1,1.5,0.2,2.2,0.6C161.8,112.2,162.2,112.6,162.4,113z"/>
		<path class="st8" d="M165.8,110.9c-0.8-1.1-2.3-1.5-3.5-1c-0.6-0.7-1.5-1.2-2.5-1.4c-1.3-0.1-2.6,0.4-3.6,1.3
			c-0.1,0.1-0.2,0.3-0.3,0.4c-0.3,0.5-0.5,1-0.7,1.6c-0.3,1.3-0.3,2.7,0.1,4l0,0c0.2,0.7,0.6,1.4,1.1,2c0.4,0.5,1,0.9,1.6,1.1
			c0.2,0.1,0.4,0.2,0.6,0.2c0.6,0.2,1.3,0.3,1.9,0.2c0.2,0,0.3,0,0.5,0c1.8-0.2,3.4-1.3,4.3-2.8c0.2-0.3,0.3-0.7,0.4-1
			C166.5,113.7,166.5,111.7,165.8,110.9z M157.2,110.7c0.2-0.7,0.7-1.2,1.4-1.4c1.3-0.3,2.6,0,3.5,1c0,0,2.8-1.1,3.2,1.9
			s-1.7,4.5-2.9,3.7s-0.2-2.2-0.2-2.2l-1.3-0.4c0.1,0.7-0.1,1.4-0.6,1.9l-0.1,0.1c-0.5,0.6-1.4,0.7-2,0.2c0,0-0.1-0.1-0.1-0.1
			c-0.7-0.7-1-1.6-1.1-2.5C156.9,112.3,157,111.5,157.2,110.7z"/>
		<path class="st8" d="M152.3,95.9c2.1-1.4,4.7-1.7,7-0.8c3.6,1.3,4.7,1.6,5.9-1.1s-0.9-8.9-5.9-9.1s-7.9,6.2-7.9,6.2
			s-7.8,2.9-5.1,10.1L152.3,95.9z"/>
		<path class="st8" d="M139.6,123.6c-0.1-0.1-0.2-0.3-0.2-0.4l6.6-1.3l0.3-0.1l0.5,1.1c0.2,0.4,0.5,1,0.8,1.7h-5.9
			c-0.2,0-0.4,0-0.6-0.1l0,0h-0.1c-0.2-0.1-0.4-0.2-0.6-0.3c-0.1-0.1-0.2-0.1-0.4-0.2C140,123.9,139.8,123.8,139.6,123.6z"/>
		<path class="st8" d="M172.4,121.4v0.4c0,0,0,0.1,0,0.1c0,0.4-0.1,0.8-0.3,1.2c-0.1,0.1-0.1,0.2-0.2,0.3c-0.4,0.5-0.9,0.9-1.4,1.1
			c-0.2,0.1-0.3,0.1-0.5,0.1c-0.1,0-0.2,0-0.3,0h-2.9c-0.2-0.6-0.4-1.1-0.5-1.6s-0.3-0.8-0.4-1.1c-0.2-0.5-0.3-0.8-0.4-0.9l0,0
			L172.4,121.4z"/>
		<path class="st8" d="M150.6,124.7h-6.8c0.3-0.5,0.6-1.1,1-1.6l0,0c0.4-0.4,0.8-0.9,1.2-1.2c1-0.9,2.3-1.5,3.6-1.8
			c-0.1,0.3-0.1,0.7,0,1c0.1,0.6,0.2,1.1,0.4,1.7C150.1,123.3,150.3,124,150.6,124.7z"/>
		<path class="st8" d="M170.5,124.5c-0.2,0.1-0.3,0.1-0.5,0.1c-0.1,0-0.2,0-0.3,0h-3.9c-0.1-0.4-0.3-0.8-0.4-1.2
			c0-0.1,0-0.1-0.1-0.2c-0.2-0.4-0.3-0.8-0.5-1.2c-0.2-0.6-0.5-1.1-0.8-1.7l0,0c0.5,0.2,1.1,0.5,1.6,0.7l0,0c0.4,0.2,1,0.5,1.6,0.9
			C168.3,122.7,169.4,123.6,170.5,124.5z"/>
	</g>
	<g id="freepik--location-1--inject-13">
		<path class="st15" d="M209.9,239.3H105.7c-3.1,0-5.6,2.5-5.6,5.6v37.7c0,3.1,2.5,5.6,5.6,5.6h76.1l10.1,5.9l-3-5.9h21
			c3.1,0,5.6-2.5,5.6-5.6v-37.7C215.5,241.8,213,239.3,209.9,239.3C209.9,239.3,209.9,239.3,209.9,239.3z"/>
		<path class="st6" d="M212.9,236.3H108.7c-3.1,0-5.6,2.5-5.6,5.6v37.7c0,3.1,2.5,5.6,5.6,5.6h76.1l7.1,10.8v-10.8h21
			c3.1,0,5.6-2.5,5.6-5.6v-37.7C218.5,238.8,216,236.3,212.9,236.3C212.9,236.3,212.9,236.3,212.9,236.3z"/>
		<path class="st12" d="M144.6,246.9v27.7c0,0.5-0.1,0.9-0.3,1.3c-0.1,0.1-0.1,0.2-0.2,0.3c-0.5,0.6-1.2,1.1-1.9,1.2
			c-0.1,0-0.2,0-0.3,0h-28c-0.2,0-0.4,0-0.6-0.1l0,0h-0.1c-0.2-0.1-0.4-0.2-0.6-0.3c-0.1-0.1-0.2-0.1-0.4-0.2
			c-0.7-0.5-1.1-1.4-1.1-2.2v-27.7c0-1.5,1.2-2.8,2.8-2.8h27.8C143.3,244.1,144.6,245.3,144.6,246.9
			C144.6,246.9,144.6,246.9,144.6,246.9z"/>
		<g id="freepik--group--inject-13">
			<path class="st8" d="M142.1,277.4c-0.1,0-0.2,0-0.3,0h-1.4V277h0.1C141.1,277,141.6,277.2,142.1,277.4L142.1,277.4z"/>
			<path class="st14" d="M142.1,277.4c-0.1,0-0.2,0-0.3,0h-1.4V277h0.1C141.1,277,141.6,277.2,142.1,277.4L142.1,277.4z"/>
			<path class="st8" d="M141.8,277.4H131l0,0l0,0h-13.9l0.1,0.1c0,0-0.1-0.1-0.1-0.1h-3.2c0.9-0.1,1.9-0.3,3-0.4l0.7-0.1
				c0.9-0.1,1.8-0.2,2.7-0.3h0.2c1.6-0.1,3.2-0.2,4.8-0.3h0.4c0.8,0,1.5-0.1,2.3-0.1c1.1,0,2.3,0,3.4,0h0.6c0.8,0,1.7,0,2.5,0
				l0.9,0.1c0.3,0,0.5,0,0.8,0.1c0.7,0.1,1.5,0.2,2.1,0.3l1,0.1l0.5,0.1l0.5,0.1h0.1c0.4,0.1,0.8,0.2,1.2,0.4L141.8,277.4z"/>
			<path class="st20" d="M135.8,277.4H131l0,0l0,0h-9.5c-0.4-0.2-0.7-0.5-1-0.8l-0.4-0.4c0.7-0.6,1.2-1.2,1.6-2
				c1.2-2.4,1-5.3,0.7-7.4l0,0c-0.1-1-0.3-1.8-0.3-2.2l0,0c0-0.1,0-0.1,0-0.2c0-0.1,0-0.2,0.1-0.3l0.2,0.1l0.5,0.2l0.2,0.1l7.9,2.9
				c-0.1,0.3-0.1,0.5-0.2,0.8s-0.1,0.5-0.1,0.8l-0.1,0.5c0,0.4-0.1,0.7-0.1,1.1c0,0.7,0.1,1.3,0.2,2c0.2,0.7,0.5,1.3,0.9,1.8l0,0
				c0.1,0.2,0.3,0.3,0.4,0.5c0.9,0.8,2.1,1.3,3.2,1.5c0.1,0.1,0.1,0.2,0.1,0.3C135.6,276.8,135.8,277.1,135.8,277.4z"/>
			<path class="st15" d="M130.7,272.4c-3-0.6-6.4-2.7-7.3-5.3c-0.3-0.9-0.6-1.8-0.7-2.8l8.2,2.9C130.4,269,130.4,270.7,130.7,272.4z
				"/>
			<path class="st20" d="M120.9,254.7c0.6,6.4,0.6,10.2,3.9,13.4c5,4.8,12.9,1.7,14.3-4.8c1.2-5.8,0.1-15.4-6.3-17.8
				c-4.5-1.7-9.6,0.5-11.4,5C120.9,251.9,120.7,253.3,120.9,254.7z"/>
			<path class="st8" d="M130.7,256.2c0,0.5,0.3,0.9,0.6,0.9s0.6-0.5,0.6-1s-0.3-0.9-0.6-0.9S130.7,255.7,130.7,256.2z"/>
			<path class="st8" d="M136.6,256.1c0,0.5,0.3,0.9,0.6,0.9s0.6-0.4,0.6-1s-0.3-0.9-0.6-0.9S136.6,255.6,136.6,256.1z"/>
			<path class="st21" d="M134.7,256.4c0.7,1.6,1.6,3.1,2.6,4.4c-0.7,0.5-1.6,0.7-2.5,0.5L134.7,256.4z"/>
			<path class="st8" d="M128.8,254.3c0.1,0,0.2,0,0.3-0.1c0.5-0.7,1.2-1.1,2-1.1c0.2,0,0.3-0.1,0.3-0.3c0-0.2-0.1-0.3-0.3-0.3l0,0
				c-1,0-1.9,0.5-2.5,1.3c-0.1,0.1-0.1,0.3,0,0.4c0,0,0,0,0,0l0,0L128.8,254.3z"/>
			<path class="st8" d="M132.5,263.8L132.5,263.8c-1.5-0.1-2.9-0.9-3.7-2.2c0-0.1,0-0.2,0.1-0.2c0.1,0,0.2,0,0.2,0.1l0,0
				c0.8,1.2,2.1,2,3.5,2.1c0.1,0,0.2,0.1,0.2,0.2c0,0,0,0,0,0l0,0C132.6,263.7,132.6,263.8,132.5,263.8L132.5,263.8L132.5,263.8z"/>
			<path class="st8" d="M139.1,254c0.1,0,0.1,0,0.2,0c0.2-0.1,0.2-0.2,0.1-0.4c0,0,0,0,0,0l0,0c-0.4-0.9-1.3-1.5-2.3-1.7
				c-0.2,0-0.3,0.1-0.3,0.3l0,0c0,0.2,0.1,0.3,0.3,0.3l0,0c0.8,0.2,1.4,0.7,1.8,1.4C138.9,254,139,254,139.1,254z"/>
			<path class="st8" d="M122.7,259.9c0,0,3.3-5.8,1.7-10.4c2.2-0.6,4.5-0.4,6.5,0.6c-0.1-0.7-0.2-1.5-0.4-2.2c0,0,5.8-0.4,9.1,2.9
				c-0.3-2.1-1.3-4.1-2.9-5.6c0.8-0.2,1.7-0.2,2.5,0c0,0-5.2-4.2-13.4-1.8s-10.8,7.4-8.9,14.7s5.8,8.9,5.8,8.9s-1.6-5.6-1.3-6.8
				S122.7,259.9,122.7,259.9z"/>
			<path class="st20" d="M118.2,261.8c0.9,1.3,2.3,2.3,3.9,2.6c2.1,0.4,3-1.5,2.3-3.4c-0.7-1.7-2.6-4-4.6-3.5
				c-1.5,0.3-2.4,1.8-2,3.3C117.8,261.2,117.9,261.5,118.2,261.8z"/>
			<path class="st8" d="M128.2,277.3l0.4,0.1h-11.4c-0.1-0.1-0.2-0.3-0.2-0.4l0,0l3.7-3.5c0.4,0.3,0.7,0.5,1.1,0.8
				c1.3,0.8,2.7,1.5,4.1,2.1l0,0c0.4,0.2,0.9,0.4,1.3,0.6L128.2,277.3z"/>
			<path class="st8" d="M136.3,276.4v1H131l0.1-0.2c0.1-0.3,0.3-0.7,0.3-1c0,0,0,0,0-0.1l0,0c0.1-0.2,0.1-0.5,0.1-0.7
				c0.1-0.4,0.1-0.9,0.1-1.4c0-0.3,0-0.7,0-1.1l0,0L136.3,276.4z"/>
			<path class="st15" d="M132.1,276.2L132.1,276.2c-0.1,0.3-0.2,0.7-0.3,1v0.1H131l0,0l0,0l0.1-0.2c0.1-0.3,0.3-0.7,0.3-1
				c0,0,0,0,0-0.1l0,0c0.1-0.2,0.1-0.5,0.1-0.7c0.1-0.4,0.1-0.9,0.1-1.3c0-0.3,0-0.7,0-1.1c0.3,0.5,0.4,1,0.5,1.5
				C132.2,275.1,132.2,275.7,132.1,276.2z"/>
		</g>
		<path class="st0" d="M204.1,255.9H157c-0.7,0-1.2-0.6-1.2-1.2c0,0,0,0,0,0l0,0c0-0.7,0.6-1.2,1.2-1.2h47.1c0.7,0,1.2,0.5,1.2,1.2
			l0,0C205.4,255.3,204.8,255.9,204.1,255.9z"/>
		<path class="st0" d="M189,244.1h-31.4c-1,0.1-1.7,0.9-1.6,1.9c0.1,0.9,0.8,1.6,1.6,1.6H189c1,0.1,1.8-0.7,1.9-1.6
			s-0.7-1.8-1.6-1.9C189.2,244.1,189.1,244.1,189,244.1z"/>
		<path class="st0" d="M185.1,261H157c-0.7,0-1.2-0.6-1.2-1.2l0,0l0,0c0-0.7,0.5-1.2,1.2-1.2c0,0,0,0,0,0h28.1
			c0.7,0,1.2,0.6,1.2,1.2l0,0C186.4,260.4,185.8,261,185.1,261z"/>
	</g>
	<g id="freepik--Briefcase--inject-13">
		<path class="st8" d="M294.2,373.6c0,0,4.4-5.6,10.2-5.6s10.5,5.6,10.5,5.6h-4.2c-1.5-2-3.7-3.4-6.2-4c-3.9-0.8-6.4,4-6.4,4H294.2z
			"/>
		<path class="st8" d="M281.9,372.6h50.9c2.7,0,4.9,2.2,4.9,4.9v36.1c0,2.7-2.2,4.9-4.9,4.9h-50.9c-2.7,0-4.9-2.2-4.9-4.9v-36.1
			C276.9,374.8,279.1,372.6,281.9,372.6z"/>
		<path class="st7" d="M337.7,377.9v35.4c0,2.9-2.4,5.2-5.2,5.2c0,0,0,0,0,0h-50.3c-2.9,0-5.3-2.3-5.3-5.2c0,0,0,0,0,0v-35.4
			c0-2.9,2.4-5.3,5.3-5.3c0,0,0,0,0,0h50.3C335.4,372.6,337.7,375,337.7,377.9C337.7,377.9,337.7,377.9,337.7,377.9z"/>
		<path class="st7" d="M333.8,377.9v35.4c0,2.9-2.4,5.2-5.2,5.2c0,0,0,0,0,0h-46.4c-2.9,0-5.3-2.3-5.3-5.2c0,0,0,0,0,0v-35.4
			c0-2.9,2.4-5.3,5.3-5.3c0,0,0,0,0,0h46.4C331.4,372.6,333.8,375,333.8,377.9C333.8,377.9,333.8,377.9,333.8,377.9z"/>
		<path class="st8" d="M335,373.3c-2,1-3.2,3-3.2,5.3v18.7c0,1.3-1.1,2.4-2.4,2.4c0,0,0,0,0,0h-51.5c-1.3,0-2.3-1-2.4-2.3
			c0,0,0,0,0,0v-18.7c0-3.3,2.6-5.9,5.9-5.9c0,0,0,0,0,0h51.1C333.4,372.6,334.2,372.8,335,373.3z"/>
		<path class="st7" d="M335,373.3c-2,1-3.2,3-3.2,5.3v18.7c0,1.3-1.1,2.4-2.4,2.4c0,0,0,0,0,0h-51.5c-1.3,0-2.3-1-2.4-2.3
			c0,0,0,0,0,0v-18.7c0-3.3,2.6-5.9,5.9-5.9c0,0,0,0,0,0h51.1C333.4,372.6,334.2,372.8,335,373.3z"/>
		<path class="st8" d="M299.5,398.3h3.9l0,0v6.1c0,1-0.8,1.9-1.9,1.9l0,0h-0.2c-1,0-1.9-0.8-1.9-1.9l0,0L299.5,398.3L299.5,398.3
			L299.5,398.3z"/>
		<path class="st0" d="M299.3,398.3h4.4c0.4,0,0.6,0.3,0.6,0.6v3.8c0,0.4-0.3,0.6-0.6,0.6h-4.4c-0.4,0-0.6-0.3-0.6-0.6v-3.8
			C298.7,398.6,299,398.3,299.3,398.3z"/>
		<rect x="299.5" y="394.3" class="st8" width="3.9" height="7.9"/>
	</g>
	<g id="freepik--Character--inject-13">
		<g id="freepik--group--inject-13_00000055707696274002873970000009384071833452283285_">
			<path class="st22" d="M409.5,236.8l-5.8,5.8c-0.9,0.9-0.3,6.3,0,8.1s7.5,5.1,8,4.8s1.8-6.5,1.8-6.5l-6-3.1l4.2-4.9L409.5,236.8z"
				/>
			<path class="st6" d="M408.9,194.7c3.4,1.4,16.8,27.8,16.8,32.6s-16.8,17.4-16.8,17.4l-3.7-3.6c0,0,12.3-14.5,12.7-16.3
				s-13.5-20-13.5-20L408.9,194.7z"/>
			<path class="st14" d="M425.8,227.4c0.1,4.8-16.8,17.4-16.8,17.4l-3.7-3.6c0,0,12.3-14.5,12.7-16.3c0.2-1-3.5-6.5-7.1-11.4
				c-3.2-4.5-6.3-8.5-6.3-8.5l1.3-3l3.2-7.2C412.4,196.1,425.7,222.6,425.8,227.4z"/>
			<polygon class="st6" points="405.9,239 411.1,244.8 408.9,246.4 404.5,241.4 			"/>
			<path class="st15" d="M410.8,213.4c-3.2-4.5-6.3-8.5-6.3-8.5l1.3-3c0.2-0.1,0.5-0.3,0.7-0.4C406.5,201.5,411.1,206.8,410.8,213.4
				z"/>
			<path class="st23" d="M380.3,172.8c-0.8,1.2-1.6,2.4-2.7,3.4c0.5,0.7,1.3,1.2,2.2,1.1L380.3,172.8z"/>
			<path class="st24" d="M379.5,171.4c-0.1,0.7,0.3,1.3,0.7,1.3s0.9-0.5,0.9-1.2s-0.3-1.3-0.7-1.3S379.5,170.7,379.5,171.4z"/>
			<path class="st22" d="M380.2,179.9c0.1,0.3,0.2,0.7,0.3,1c0.7,1.9,1.9,3.6,3.6,4.8c0.4,0.3,0.9,0.6,1.3,0.8
				c2.4,1.3,5.3,1.4,7.9,0.3c1.1-0.5,2.2-1.2,3-2.1c3.6-3.7,3.5-7.9,4-15.1c0.4-5.4-3.7-10.1-9.1-10.5c-1.5-0.1-3,0.1-4.5,0.7
				C379.7,162.7,378.7,173.4,380.2,179.9z"/>
			<path class="st15" d="M384.1,185.7c0.4,0.3,0.9,0.6,1.3,0.8c2.4,1.3,5.3,1.4,7.9,0.3c-0.3-0.9-0.7-1.7-1.3-2.4
				C389.3,184,386.6,184.5,384.1,185.7z"/>
			<path class="st22" d="M398.6,195c-3.5,3.2-12.2,2-12.2,2s-5.4-1.5-4.3-3.2c3.2-0.5,4.7-2,5.4-3.9c0.3-1.2,0.5-2.4,0.3-3.6
				c-0.1-0.7-0.1-1.3-0.3-2l10.7-7.9C396.8,181.6,395.1,191.2,398.6,195z"/>
			<path class="st8" d="M388.7,156.8c0,0-1.9-1.2-5.1,1.9c-2.7,2.6,0,4.6-1.6,7.9s0.6,6.6,0.6,6.6s1.6,3.4,4.3,3.2
				c0,0,2.2,2.7,1.9,5.5s3.7,5,9.1,4.9s3.3-3.5,3.3-3.5c1.6-1.8,2.9-3.9,3.8-6.1c1.1-2.7,1.6-5.6,1.5-8.6c0.1-3.1-1-6.1-3.2-8.3
				C399.7,156.2,391,154.1,388.7,156.8z"/>
			<path class="st22" d="M388.2,174.8c-0.3,1.4-1.1,2.5-2.4,3.2c-1.5,0.6-2.4-1.4-2.2-3.6c0.2-1.9,1.2-4.6,2.8-4.2
				S388.7,172.8,388.2,174.8z"/>
			<path class="st8" d="M382.5,164.4c0,0-5.4-5-2.9-10.4s2.9,0,2.9,0s4-3.2,6.2-2.4s-1.4,2.7-1.4,2.7s15.3-2.7,16.6,6.7
				S382.5,164.4,382.5,164.4z"/>
			<path class="st24" d="M381.2,169.7c-0.1,0-0.2,0-0.3-0.1c-0.2-0.3-0.4-0.4-0.7-0.5c-0.2,0-0.4-0.1-0.4-0.3c0-0.2,0.1-0.4,0.3-0.4
				c0.5,0,1,0.3,1.4,0.8c0.1,0.2,0.1,0.4-0.1,0.5c0,0,0,0,0,0C381.4,169.7,381.3,169.7,381.2,169.7z"/>
			<path class="st6" d="M399.5,194.3l-1.6-4.1c0,0-10.7-2-14.3,3.3S399.5,194.3,399.5,194.3z"/>
			<polygon class="st22" points="371,411.7 363.5,412.5 363.1,408.1 362.1,396.4 369.6,395.6 370.7,408.6 			"/>
			<polygon class="st22" points="408.3,410.8 401.1,410.8 401,409.1 401,408.9 400.6,398.4 400.6,398.2 400.5,394.2 407.7,394.2 			
				"/>
			<polygon class="st15" points="369.6,395.6 370.7,408.6 363.1,408.1 362.1,396.4 			"/>
			<polygon class="st15" points="408.3,409.8 408.3,409.8 401,408.9 401,408.9 400.6,398.8 400.6,398.8 407.9,399.4 408.3,409.5 			
				"/>
			<path class="st8" d="M400.1,410.3h8.8c0.3,0,0.6,0.2,0.6,0.5l1.4,6.5c0.1,0.6-0.3,1.1-0.8,1.3c-0.1,0-0.2,0-0.2,0
				c-2.9,0-4.9-0.2-8.5-0.2c-2.2,0-8.9,0.2-11.9,0.2s-3.4-3-2.2-3.3c5.6-1.2,9.8-2.9,11.6-4.5C399.2,410.5,399.6,410.3,400.1,410.3z
				"/>
			<path class="st8" d="M362.7,410.1h8.8c0.3,0,0.5,0.2,0.6,0.5l1.4,6.5c0.1,0.6-0.2,1.1-0.8,1.3h-0.2c-2.9,0-4.9-0.2-8.5-0.2
				c-2.2,0-8.9,0.2-11.9,0.2s-3.4-3-2.2-3.3c5.6-1.2,9.8-2.9,11.6-4.5C361.9,410.2,362.3,410.1,362.7,410.1z"/>
			<path class="st8" d="M361.5,407.1h10.6c0,0-0.9-91.5,10.6-122.4c0.8,10.2,1.7,20.8,2.6,29.6c0.6,5.5,1.1,10.2,1.6,13.7
				c3.4,23,11.8,79.9,11.8,79.9h10.5c0,0-1.2-54.5-2.5-77.2c-1.4-24.6-2-78.6-2-83.2h-38.5C362.6,266.9,353.2,344.4,361.5,407.1z"/>
			<path class="st15" d="M382.7,284.6c0.8,10.2,1.7,20.8,2.6,29.7c1.3-12.8,2.9-21.8,2.9-21.8s1.5-1.2,5.6-7.8s0-18.9,0-18.9
				C394,277.1,382.7,284.6,382.7,284.6z"/>
			<polygon class="st6" points="360.2,404.1 360.8,407.1 373.3,407.1 373.3,404.3 			"/>
			<polygon class="st6" points="397.5,405.2 398.8,408 409.3,408 410,405.2 			"/>
			<path class="st6" d="M405.7,250.1c0,0-1.5-8.7,0.7-34.1c0.6-6.6,1.4-13.7,2.5-21.2c0,0-20.9-4.6-35.5,0c0,0-0.6,3.1-1.4,8.4
				c-0.5,3.2-1.1,7.1-1.7,11.7l0,0l-0.1,0.5c-1.5,11.1-4.2,19.3-4.5,34.2L405.7,250.1z"/>
			<path class="st14" d="M406.4,216c-2.2,25.4-0.7,34.1-0.7,34.1l-39.9-0.6c0.2-13.2,2.4-21.1,4-30.5c0.2-1.2,0.4-2.4,0.5-3.7
				l0.1-0.5l0,0c0.5-3.8,1-7.1,1.4-10c0.1-0.6,0.2-1.2,0.3-1.7c0.8-5.3,1.4-8.4,1.4-8.4c14.6-4.6,35.5,0,35.5,0
				C407.8,202.3,407,209.4,406.4,216z"/>
			<path class="st15" d="M374.1,205.3c0,0-0.4,8.8-4.4,13.7c0.2-1.2,0.4-2.4,0.5-3.7l0.1-0.5l0,0c0.5-3.8,1-7.1,1.4-10
				C372.6,204.9,373.4,205,374.1,205.3z"/>
			<path class="st22" d="M366.2,188.2l3-3.7c0.3-0.8,0.7-1.6,1.2-2.4c0.4-0.4,5.8-3,6.1-2.8c1,1.7,1.9,3.4,2.7,5.1
				c0.3,0.6-4,2.6-5.1,2.9c-0.7,0.2-1.5,0.1-2.2-0.1l-2.3,3.8"/>
			<path class="st6" d="M373.6,194.8c-3,1.2-6.3,4.6-11,9.3l8.2-14.8l-4.2-2.5c0,0-16.9,23.6-16.9,26.9s4.4,5.9,21.4-3
				c0,0,4.5-6.4,4.5-10.2C375.6,198.5,374.9,196.4,373.6,194.8z"/>
			<path class="st14" d="M373.6,194.8c-3,1.2-6.3,4.6-11,9.3l8.2-14.8l-4.2-2.5c0,0-16.9,23.6-16.9,26.9s4.4,5.9,21.4-3
				c0,0,4.5-6.4,4.5-10.2C375.6,198.5,374.9,196.4,373.6,194.8z"/>
			<polygon class="st6" points="367,186 371.9,188.8 370.9,191.7 364.4,188.1 			"/>
		</g>
	</g>
</g>
</svg>
